<svg id="Layer_1" data-name="Layer 1" xmlns="http://www.w3.org/2000/svg" viewBox="0 0 500 1991.94"><defs><style>.cls-1,.cls-3{fill:#91ba5c;}.cls-2{fill:#fff;}.cls-2,.cls-3{stroke:#fff;stroke-miterlimit:10;}</style></defs><title>divider</title><rect class="cls-1" x="0.5" width="500" height="1991.94"/><path class="cls-2" d="M40,1892.22c2.37,3,5,6,7.24,9-2.51-.49-5-.91-7.65-1.18-2.36-2.58-5.15-5.15-7.65-7.79H.75v91.24c2,2.84,3.76,5.71,5.84,8.48H44.42c-1.24-1.73-2.49-3.54-3.89-5.35A72.24,72.24,0,0,0,60,1983.53c2.51,2.85,5.14,5.64,7.79,8.41h33.66c-2.22-2.7-4-5.35-6.26-8.06,2.64,2.71,5.43,5.36,8.21,8.06H134c-1.94-1.32-3.6-2.57-5.55-3.88-.29-.63-.84-1.26-1.11-1.88-7.79-11.9-15.73-23.93-23.79-36a21.31,21.31,0,0,0,.41-8.9c15.17,14.69,30,29.43,44.1,44.44.7,2,1,4.11,1.52,6.19h24.77c-3.06-3.47-6.12-7-9.33-10.42-8.2-24.48-27.4-47.57-57.58-62.81,5.71-2.49,5.71-8.28-2.22-9.66a121.41,121.41,0,0,0-14.89-1.61c-5.28-5-10.29-10.15-15.29-15.22Zm-6.39,57.44c5.55,7.79,11.82,16.28,18.91,25-6.68,2.17-13.63,3.21-19.47,1.67-.42-.13-.69-.34-1.11-.48-2.23-2.85-4.45-5.63-6.82-8.49-1-5.56.84-12.09,1.81-15.44a42.87,42.87,0,0,1,3.2-7C31.22,1946.47,32.47,1948.13,33.58,1949.66Z"/><path class="cls-3" d="M74.74,1892.22q1.26,3.85,2.51,7.72c-25.6,5.21-46.46,18.64-46.46,40.33,0,28.44,35.61,42.7,71.5,42.84.84,2.92,1.66,5.84,2.36,8.83h17.66c-1-3.33-1.81-6.68-2.5-10,18.78-2.43,35.89-9,45.9-19.68a273.93,273.93,0,0,1,4.46,29.69H188c-3.06-33.52-13.91-67.25-25.32-99.72Z"/><path class="cls-2" d="M84.2,1911.42c-35.88,6.18-50.91,29.41-35.61,49.5,6.54,8.76,22,14.26,37.29,14.55a55.89,55.89,0,0,0,32.12-9.6c15.31-4.39,26-13.78,26.29-25.87C145,1920.25,115.08,1906.13,84.2,1911.42Z"/><path class="cls-2" d="M250,1954.31c-20.72-20.51-44.22-40.74-63.28-62.09H126.07c26.3,33.79,65.93,64.53,94.58,97a21.32,21.32,0,0,0,2.93,2.7H250Z"/><path class="cls-2" d="M75,1094.67c5-5.07,10-10.22,15.29-15.22a109.12,109.12,0,0,0,14.89-1.61c7.93-1.38,7.93-7.17,2.22-9.66,30.18-15.24,49.38-38.33,57.58-62.81,3.21-3.48,6.27-7,9.33-10.43H149.57c-.55,2.08-.82,4.18-1.52,6.26-14.06,14.95-28.93,29.69-44.1,44.38a21.31,21.31,0,0,0-.41-8.9c8.06-12,16-24.07,23.79-36,.27-.62.82-1.25,1.11-1.88,1.95-1.31,3.61-2.56,5.55-3.89H103.4c-2.78,2.71-5.57,5.36-8.21,8.07,2.23-2.71,4-5.36,6.26-8.07H67.79c-2.65,2.78-5.28,5.57-7.79,8.42a72.24,72.24,0,0,0-19.47-3.06c1.4-1.74,2.65-3.62,3.89-5.36H6.59c-2.08,2.85-3.89,5.64-5.84,8.49v91.24H31.91c2.5-2.58,5.29-5.21,7.65-7.79,2.64-.27,5.14-.7,7.65-1.18-2.24,3-4.87,6-7.24,9ZM30.1,1042a42.59,42.59,0,0,1-3.2-7c-1-3.34-2.78-9.88-1.81-15.43,2.37-2.79,4.59-5.64,6.82-8.49.42-.14.69-.35,1.11-.48,5.84-1.54,12.79-.5,19.47,1.66-7.09,8.69-13.36,17.18-18.91,25C32.47,1038.76,31.22,1040.42,30.1,1042Z"/><path class="cls-3" d="M74.74,1094.67c.84-2.58,1.68-5.14,2.51-7.72-25.6-5.21-46.46-18.64-46.46-40.33,0-28.45,35.61-42.7,71.5-42.85.84-2.91,1.66-5.83,2.36-8.83h17.66c-1,3.34-1.81,6.76-2.5,10,18.78,2.43,35.89,9,45.9,19.75a275,275,0,0,0,4.46-29.77H188c-3.06,33.53-13.91,67.26-25.32,99.73Z"/><path class="cls-2" d="M144.29,1046.89c-.27-12.09-11-21.48-26.29-25.87a55.82,55.82,0,0,0-32.12-9.6c-15.31.29-30.75,5.77-37.29,14.55-15.3,20.09-.27,43.32,35.61,49.5C115.08,1080.83,145,1066.64,144.29,1046.89Z"/><path class="cls-2" d="M250,1032.57c-20.72,20.58-44.22,40.82-63.28,62.1H126.07c26.3-33.8,65.93-64.46,94.58-97a21.4,21.4,0,0,1,2.93-2.71H250Z"/><path class="cls-2" d="M40,1692.83c2.37,3,5,5.91,7.24,9-2.51-.48-5-.91-7.65-1.18-2.36-2.58-5.15-5.21-7.65-7.79H.75v91.24c2,2.79,3.76,5.64,5.84,8.49H44.42c-1.24-1.81-2.49-3.62-3.89-5.36A72.24,72.24,0,0,0,60,1784.14c2.51,2.85,5.14,5.64,7.79,8.42h33.66c-2.22-2.71-4-5.36-6.26-8.06,2.64,2.7,5.43,5.35,8.21,8.06H134c-1.94-1.33-3.6-2.58-5.55-3.89-.29-.63-.84-1.32-1.11-1.88q-11.68-17.83-23.79-36a20.94,20.94,0,0,0,.41-8.83c15.17,14.61,30,29.35,44.1,44.38.7,2.08,1,4.15,1.52,6.25h24.77c-3.06-3.48-6.12-7-9.33-10.43-8.2-24.55-27.4-47.57-57.58-62.81,5.71-2.56,5.71-8.27-2.22-9.65a106.05,106.05,0,0,0-14.89-1.61C85,1703,80,1697.9,75,1692.83Zm-6.39,57.44c5.55,7.79,11.82,16.28,18.91,24.9-6.68,2.23-13.63,3.27-19.47,1.74-.42-.13-.69-.35-1.11-.49-2.23-2.85-4.45-5.7-6.82-8.49-1-5.55.84-12.09,1.81-15.44a42.87,42.87,0,0,1,3.2-7C31.22,1747.08,32.47,1748.75,33.58,1750.27Z"/><path class="cls-3" d="M74.74,1692.83c.84,2.58,1.68,5.14,2.51,7.72-25.6,5.21-46.46,18.64-46.46,40.34,0,28.37,35.61,42.7,71.5,42.84.84,2.85,1.66,5.84,2.36,8.83h17.66q-1.45-5.11-2.5-10c18.78-2.44,35.89-9,45.9-19.76a275.35,275.35,0,0,1,4.46,29.77H188c-3.06-33.59-13.91-67.26-25.32-99.73Z"/><path class="cls-2" d="M84.2,1712c-35.88,6.18-50.91,29.41-35.61,49.51,6.54,8.76,22,14.25,37.29,14.54a55.26,55.26,0,0,0,32.12-9.67c15.31-4.39,26-13.7,26.29-25.8C145,1720.86,115.08,1706.67,84.2,1712Z"/><path class="cls-2" d="M250,1754.93c-20.72-20.58-44.22-40.82-63.28-62.1H126.07c26.3,33.8,65.93,64.46,94.58,97a21.4,21.4,0,0,0,2.93,2.71H250Z"/><path class="cls-2" d="M75,1294.06c5-5.07,10-10.16,15.29-15.23a106.05,106.05,0,0,0,14.89-1.61c7.93-1.38,7.93-7.09,2.22-9.65,30.18-15.24,49.38-38.26,57.58-62.81,3.21-3.48,6.27-7,9.33-10.43H149.57c-.55,2.09-.82,4.17-1.52,6.25-14.06,15-28.93,29.77-44.1,44.38a20.93,20.93,0,0,0-.41-8.83q12.09-18.15,23.79-36c.27-.56.82-1.25,1.11-1.88,1.95-1.31,3.61-2.57,5.55-3.89H103.4c-2.78,2.71-5.57,5.36-8.21,8.06,2.23-2.7,4-5.35,6.26-8.06H67.79c-2.65,2.78-5.28,5.57-7.79,8.42a72.24,72.24,0,0,0-19.47-3.06c1.4-1.74,2.65-3.55,3.89-5.36H6.59c-2.08,2.85-3.89,5.7-5.84,8.49v91.24H31.91c2.5-2.58,5.29-5.21,7.65-7.79,2.64-.27,5.14-.7,7.65-1.18-2.24,3.06-4.87,6-7.24,9ZM30.1,1241.35a43.27,43.27,0,0,1-3.2-6.95c-1-3.35-2.78-9.89-1.81-15.44,2.37-2.8,4.59-5.64,6.82-8.49.42-.15.69-.36,1.11-.49,5.84-1.54,12.79-.5,19.47,1.74-7.09,8.62-13.36,17.11-18.91,24.9C32.47,1238.14,31.22,1239.81,30.1,1241.35Z"/><path class="cls-3" d="M74.74,1294.06c.84-2.58,1.68-5.14,2.51-7.72-25.6-5.21-46.46-18.65-46.46-40.34,0-28.37,35.61-42.7,71.5-42.84.84-2.85,1.66-5.84,2.36-8.83h17.66c-1,3.4-1.81,6.75-2.5,10,18.78,2.44,35.89,9.05,45.9,19.76a275.35,275.35,0,0,0,4.46-29.77H188c-3.06,33.58-13.91,67.25-25.32,99.73Z"/><path class="cls-2" d="M144.29,1246.27c-.27-12.09-11-21.4-26.29-25.79a55.26,55.26,0,0,0-32.12-9.67c-15.31.28-30.75,5.78-37.29,14.54-15.3,20.1-.27,43.33,35.61,49.51C115.08,1280.21,145,1266,144.29,1246.27Z"/><path class="cls-2" d="M250,1232c-20.72,20.58-44.22,40.82-63.28,62.1H126.07c26.3-33.8,65.93-64.46,94.58-97a21.4,21.4,0,0,1,2.93-2.71H250Z"/><path class="cls-2" d="M40,1493.44c2.37,3,5,5.92,7.24,9-2.51-.49-5-.91-7.65-1.26-2.36-2.5-5.15-5.14-7.65-7.72H.75v91.24c2,2.8,3.76,5.64,5.84,8.49H44.42c-1.24-1.81-2.49-3.61-3.89-5.35A78.21,78.21,0,0,0,60,1584.76c2.51,2.84,5.14,5.64,7.79,8.41h33.66c-2.22-2.7-4-5.35-6.26-8.06,2.64,2.71,5.43,5.36,8.21,8.06H134c-1.94-1.32-3.6-2.58-5.55-3.89-.29-.62-.84-1.32-1.11-1.88-7.79-11.89-15.73-24-23.79-36a21.2,21.2,0,0,0,.41-8.9c15.17,14.68,30,29.42,44.1,44.44.7,2.09,1,4.17,1.52,6.26h24.77c-3.06-3.47-6.12-7-9.33-10.42-8.2-24.56-27.4-47.57-57.58-62.81,5.71-2.57,5.71-8.28-2.22-9.66a119.67,119.67,0,0,0-14.89-1.68C85,1503.6,80,1498.51,75,1493.44Zm-6.39,57.45c5.55,7.79,11.82,16.28,18.91,24.89C45.81,1578,38.86,1579,33,1577.52a6.42,6.42,0,0,1-1.11-.56c-2.23-2.77-4.45-5.62-6.82-8.41-1-5.56.84-12.1,1.81-15.44a42.87,42.87,0,0,1,3.2-6.95C31.22,1547.7,32.47,1549.36,33.58,1550.89Z"/><path class="cls-3" d="M74.74,1493.44c.84,2.58,1.68,5.15,2.51,7.65-25.6,5.29-46.46,18.65-46.46,40.34,0,28.44,35.61,42.7,71.5,42.84.84,2.92,1.66,5.91,2.36,8.9h17.66c-1-3.4-1.81-6.75-2.5-10.08,18.78-2.37,35.89-9,45.9-19.68a275.17,275.17,0,0,1,4.46,29.76H188c-3.06-33.58-13.91-67.32-25.32-99.73Z"/><path class="cls-2" d="M84.2,1512.64c-35.88,6.19-50.91,29.34-35.61,49.51,6.54,8.76,22,14.26,37.29,14.54A55.26,55.26,0,0,0,118,1567c15.31-4.38,26-13.7,26.29-25.86C145,1521.4,115.08,1507.29,84.2,1512.64Z"/><path class="cls-2" d="M250,1555.54c-20.72-20.58-44.22-40.82-63.28-62.1H126.07c26.3,33.8,65.93,64.47,94.58,97a21.32,21.32,0,0,0,2.93,2.7H250Z"/><path class="cls-2" d="M75,1493.44c5-5.07,10-10.15,15.29-15.15a119.67,119.67,0,0,0,14.89-1.68c7.93-1.38,7.93-7.09,2.22-9.66,30.18-15.24,49.38-38.25,57.58-62.81,3.21-3.4,6.27-7,9.33-10.42H149.57c-.55,2.09-.82,4.17-1.52,6.25-14.06,15-28.93,29.77-44.1,44.45a21.2,21.2,0,0,0-.41-8.9c8.06-12,16-24.14,23.79-36,.27-.55.82-1.25,1.11-1.88,1.95-1.31,3.61-2.56,5.55-3.88H103.4c-2.78,2.7-5.57,5.35-8.21,8.06,2.23-2.71,4-5.36,6.26-8.06H67.79c-2.65,2.77-5.28,5.56-7.79,8.41a78.21,78.21,0,0,0-19.47-3.06c1.4-1.74,2.65-3.55,3.89-5.35H6.59c-2.08,2.84-3.89,5.69-5.84,8.48v91.24H31.91c2.5-2.57,5.29-5.21,7.65-7.72,2.64-.34,5.14-.76,7.65-1.25-2.24,3.06-4.87,6-7.24,9ZM30.1,1440.73a42.87,42.87,0,0,1-3.2-7c-1-3.35-2.78-9.88-1.81-15.44,2.37-2.79,4.59-5.64,6.82-8.42a7.15,7.15,0,0,1,1.11-.55c5.84-1.47,12.79-.5,19.47,1.74-7.09,8.61-13.36,17.1-18.91,24.89C32.47,1437.53,31.22,1439.19,30.1,1440.73Z"/><path class="cls-3" d="M74.74,1493.44c.84-2.57,1.68-5.07,2.51-7.64-25.6-5.22-46.46-18.65-46.46-40.34,0-28.44,35.61-42.7,71.5-42.84.84-2.92,1.66-5.91,2.36-8.9h17.66c-1,3.4-1.81,6.75-2.5,10.08,18.78,2.36,35.89,9,45.9,19.68a275.17,275.17,0,0,0,4.46-29.76H188c-3.06,33.58-13.91,67.32-25.32,99.72Z"/><path class="cls-2" d="M144.29,1445.73c-.27-12.16-11-21.48-26.29-25.86a55.33,55.33,0,0,0-32.12-9.68c-15.31.29-30.75,5.79-37.29,14.55-15.3,20.16-.27,43.32,35.61,49.5C115.08,1479.6,145,1465.49,144.29,1445.73Z"/><path class="cls-2" d="M250,1431.35c-20.72,20.58-44.22,40.82-63.28,62.09H126.07c26.3-33.79,65.93-64.46,94.58-97a21.32,21.32,0,0,1,2.93-2.7H250Z"/><path class="cls-2" d="M40,1294.06c2.37,3,5,5.91,7.24,8.9-2.51-.48-5-.91-7.65-1.18-2.36-2.58-5.15-5.14-7.65-7.72H.75v91.17c2,2.86,3.76,5.71,5.84,8.49H44.42c-1.24-1.74-2.49-3.55-3.89-5.29A78.21,78.21,0,0,0,60,1385.37c2.51,2.78,5.14,5.57,7.79,8.35h33.66c-2.22-2.65-4-5.29-6.26-8,2.64,2.7,5.43,5.34,8.21,8H134c-1.94-1.26-3.6-2.58-5.55-3.84-.29-.61-.84-1.31-1.11-1.93-7.79-11.82-15.73-23.93-23.79-36a21.2,21.2,0,0,0,.41-8.9c15.17,14.69,30,29.43,44.1,44.44.7,2.09,1,4.17,1.52,6.2h24.77c-3.06-3.48-6.12-7-9.33-10.36-8.2-24.55-27.4-47.57-57.58-62.81,5.71-2.56,5.71-8.27-2.22-9.66a121.6,121.6,0,0,0-14.89-1.68c-5.28-5-10.29-10.08-15.29-15.15Zm-6.39,57.37c5.55,7.86,11.82,16.35,18.91,25-6.68,2.22-13.63,3.2-19.47,1.66-.42,0-.69-.34-1.11-.48-2.23-2.78-4.45-5.63-6.82-8.48-1-5.49.84-12,1.81-15.44a48.76,48.76,0,0,1,3.2-7C31.22,1348.31,32.47,1349.9,33.58,1351.43Z"/><path class="cls-3" d="M74.74,1294.06c.84,2.58,1.68,5.07,2.51,7.65-25.6,5.21-46.46,18.64-46.46,40.33,0,28.45,35.61,42.7,71.5,42.85.84,2.92,1.66,5.91,2.36,8.83h17.66q-1.45-5-2.5-10c18.78-2.43,35.89-9,45.9-19.68a274.1,274.1,0,0,1,4.46,29.7H188c-3.06-33.52-13.91-67.26-25.32-99.66Z"/><path class="cls-2" d="M84.2,1313.19c-35.88,6.25-50.91,29.41-35.61,49.5,6.54,8.84,22,14.26,37.29,14.55a54.8,54.8,0,0,0,32.12-9.6c15.31-4.39,26-13.7,26.29-25.87C145,1322,115.08,1307.9,84.2,1313.19Z"/><path class="cls-2" d="M250,1356.16c-20.72-20.58-44.22-40.82-63.28-62.1H126.07c26.3,33.8,65.93,64.46,94.58,97a20.34,20.34,0,0,0,2.93,2.65H250Z"/><path class="cls-2" d="M75,1692.83c5-5.07,10-10.16,15.29-15.15a119.7,119.7,0,0,0,14.89-1.69c7.93-1.38,7.93-7.09,2.22-9.65,30.18-15.24,49.38-38.26,57.58-62.81,3.21-3.41,6.27-6.88,9.33-10.36H149.57c-.55,2-.82,4.1-1.52,6.2-14.06,15-28.93,29.75-44.1,44.44a21.25,21.25,0,0,0-.41-8.91c8.06-12,16-24.14,23.79-36,.27-.63.82-1.32,1.11-1.94,1.95-1.25,3.61-2.57,5.55-3.83H103.4c-2.78,2.64-5.57,5.29-8.21,8,2.23-2.7,4-5.35,6.26-8H67.79c-2.65,2.78-5.28,5.57-7.79,8.35a78.21,78.21,0,0,0-19.47-3.06c1.4-1.74,2.65-3.55,3.89-5.29H6.59c-2.08,2.78-3.89,5.63-5.84,8.49v91.17H31.91c2.5-2.58,5.29-5.14,7.65-7.72,2.64-.28,5.14-.7,7.65-1.18-2.24,3-4.87,5.91-7.24,8.9ZM30.1,1640.19a48.37,48.37,0,0,1-3.2-7c-1-3.4-2.78-9.94-1.81-15.44,2.37-2.84,4.59-5.69,6.82-8.47.42-.14.69-.43,1.11-.48,5.84-1.54,12.79-.56,19.47,1.66-7.09,8.62-13.36,17.11-18.91,25C32.47,1637,31.22,1638.58,30.1,1640.19Z"/><path class="cls-3" d="M74.74,1692.83c.84-2.58,1.68-5.07,2.51-7.65-25.6-5.21-46.46-18.64-46.46-40.33,0-28.45,35.61-42.7,71.5-42.85.84-2.92,1.66-5.91,2.36-8.83h17.66q-1.45,5-2.5,10c18.78,2.43,35.89,9,45.9,19.68a274.1,274.1,0,0,0,4.46-29.7H188c-3.06,33.52-13.91,67.26-25.32,99.66Z"/><path class="cls-2" d="M144.29,1645.12c-.27-12.17-11-21.48-26.29-25.87a54.73,54.73,0,0,0-32.12-9.6c-15.31.29-30.75,5.71-37.29,14.54-15.3,20.1-.27,43.26,35.61,49.51C115.08,1679,145,1664.87,144.29,1645.12Z"/><path class="cls-2" d="M250,1630.73c-20.72,20.58-44.22,40.82-63.28,62.1H126.07c26.3-33.8,65.93-64.46,94.58-97a20.87,20.87,0,0,1,2.93-2.64H250Z"/><path class="cls-2" d="M40,1094.67c2.37,2.92,5,5.91,7.24,8.9-2.51-.48-5-.91-7.65-1.18-2.36-2.58-5.15-5.14-7.65-7.72H.75v91.17c2,2.86,3.76,5.71,5.84,8.49H44.42c-1.24-1.74-2.49-3.55-3.89-5.36A74.86,74.86,0,0,0,60,1186c2.51,2.78,5.14,5.57,7.79,8.35h33.66c-2.22-2.71-4-5.36-6.26-8.06,2.64,2.7,5.43,5.41,8.21,8.06H134c-1.94-1.25-3.6-2.58-5.55-3.89-.29-.62-.84-1.25-1.11-1.88-7.79-11.89-15.73-23.93-23.79-36a21.31,21.31,0,0,0,.41-8.9c15.17,14.68,30,29.42,44.1,44.43.7,2,1,4.12,1.52,6.2h24.77c-3.06-3.48-6.12-6.95-9.33-10.37-8.2-24.54-27.4-47.63-57.58-62.8,5.71-2.56,5.71-8.34-2.22-9.72a134.4,134.4,0,0,0-14.89-1.61c-5.28-5-10.29-10.09-15.29-15.16ZM33.58,1152c5.55,7.79,11.82,16.35,18.91,25-6.68,2.22-13.63,3.21-19.47,1.67a6,6,0,0,1-1.11-.49c-2.23-2.85-4.45-5.62-6.82-8.47-1-5.57.84-12.11,1.81-15.44a45.57,45.57,0,0,1,3.2-7C31.22,1148.92,32.47,1150.52,33.58,1152Z"/><path class="cls-3" d="M74.74,1094.67c.84,2.51,1.68,5.07,2.51,7.65-25.6,5.21-46.46,18.65-46.46,40.34,0,28.44,35.61,42.7,71.5,42.84.84,2.92,1.66,5.91,2.36,8.83h17.66c-1-3.33-1.81-6.68-2.5-10,18.78-2.44,35.89-9,45.9-19.69a274.1,274.1,0,0,1,4.46,29.7H188c-3.06-33.51-13.91-67.25-25.32-99.66Z"/><path class="cls-2" d="M84.2,1113.8c-35.88,6.18-50.91,29.41-35.61,49.51,6.54,8.83,22,14.26,37.29,14.54a55.23,55.23,0,0,0,32.12-9.6c15.31-4.39,26-13.7,26.29-25.86C145,1122.63,115.08,1108.52,84.2,1113.8Z"/><path class="cls-2" d="M250,1156.77c-20.72-20.58-44.22-40.82-63.28-62.1H126.07c26.3,33.8,65.93,64.47,94.58,97a20.34,20.34,0,0,0,2.93,2.65H250Z"/><path class="cls-2" d="M75,1892.22c5-5.07,10-10.16,15.29-15.16a134.4,134.4,0,0,0,14.89-1.61c7.93-1.38,7.93-7.16,2.22-9.73,30.18-15.16,49.38-38.25,57.58-62.79,3.21-3.42,6.27-6.9,9.33-10.37H149.57c-.55,2.08-.82,4.1-1.52,6.19-14.06,15-28.93,29.76-44.1,44.44a21.31,21.31,0,0,0-.41-8.9c8.06-12,16-24.07,23.79-36,.27-.63.82-1.33,1.11-1.88,1.95-1.31,3.61-2.57,5.55-3.89H103.4c-2.78,2.65-5.57,5.35-8.21,8,2.23-2.64,4-5.29,6.26-8H67.79c-2.65,2.78-5.28,5.57-7.79,8.34a75.29,75.29,0,0,0-19.47-3c1.4-1.81,2.65-3.61,3.89-5.35H6.59c-2.08,2.78-3.89,5.62-5.84,8.49v91.17H31.91c2.5-2.58,5.29-5.15,7.65-7.72,2.64-.27,5.14-.7,7.65-1.19-2.24,3-4.87,6-7.24,8.91ZM30.1,1839.57a45.46,45.46,0,0,1-3.2-7c-1-3.33-2.78-9.87-1.81-15.44,2.37-2.85,4.59-5.63,6.82-8.47a6,6,0,0,1,1.11-.49c5.84-1.54,12.79-.55,19.47,1.67-7.09,8.69-13.36,17.17-18.91,25C32.47,1836.37,31.22,1838,30.1,1839.57Z"/><path class="cls-3" d="M74.74,1892.22c.84-2.51,1.68-5.07,2.51-7.65-25.6-5.22-46.46-18.65-46.46-40.34,0-28.44,35.61-42.7,71.5-42.84.84-2.92,1.66-5.91,2.36-8.83h17.66c-1,3.33-1.81,6.68-2.5,10,18.78,2.44,35.89,9,45.9,19.68a273.93,273.93,0,0,0,4.46-29.69H188c-3.06,33.51-13.91,67.25-25.32,99.66Z"/><path class="cls-2" d="M144.29,1844.5c-.27-12.16-11-21.48-26.29-25.86a55.74,55.74,0,0,0-32.12-9.6c-15.31.28-30.75,5.71-37.29,14.54-15.3,20.1-.27,43.33,35.61,49.51C115.08,1878.37,145,1864.26,144.29,1844.5Z"/><path class="cls-2" d="M250,1830.12c-20.72,20.58-44.22,40.82-63.28,62.1H126.07c26.3-33.8,65.93-64.47,94.58-97a19.77,19.77,0,0,1,2.93-2.65H250Z"/><path class="cls-2" d="M425,1892.22c-5,5.07-10,10.22-15.29,15.22a121.41,121.41,0,0,0-14.89,1.61c-7.93,1.38-7.93,7.17-2.22,9.66C362.39,1934,343.19,1957,335,1981.52c-3.21,3.47-6.27,7-9.32,10.42h24.76c.55-2.08.82-4.17,1.52-6.19,14.06-15,28.93-29.75,44.1-44.44a21.31,21.31,0,0,0,.41,8.9c-8.06,12-16,24.07-23.79,36-.27.62-.82,1.25-1.11,1.88-1.95,1.31-3.61,2.56-5.55,3.88H396.6c2.78-2.7,5.57-5.35,8.21-8.06-2.23,2.71-4,5.36-6.26,8.06h33.66c2.65-2.77,5.28-5.56,7.79-8.41a72.24,72.24,0,0,0,19.47,3.06c-1.4,1.81-2.65,3.62-3.89,5.35h37.83c2.08-2.77,3.89-5.64,5.84-8.48v-91.24H468.1c-2.51,2.64-5.3,5.21-7.66,7.79-2.64.27-5.14.69-7.65,1.18,2.24-3,4.87-6,7.24-9Zm44.93,52.71a42.87,42.87,0,0,1,3.2,7c1,3.35,2.78,9.88,1.81,15.44-2.37,2.86-4.59,5.64-6.81,8.49-.43.14-.7.35-1.12.48-5.84,1.54-12.79.5-19.47-1.67,7.09-8.68,13.36-17.17,18.91-25C467.53,1948.13,468.78,1946.47,469.9,1944.93Z"/><path class="cls-3" d="M425.26,1892.22c-.84,2.57-1.67,5.14-2.51,7.72,25.6,5.21,46.46,18.64,46.46,40.33,0,28.44-35.61,42.7-71.5,42.84-.82,2.92-1.66,5.84-2.36,8.83H377.69c1-3.33,1.81-6.68,2.5-10-18.78-2.43-35.89-9-45.9-19.68a273.93,273.93,0,0,0-4.46,29.69H312c3.06-33.52,13.91-67.25,25.32-99.72Z"/><path class="cls-2" d="M355.71,1940c.27,12.09,11,21.48,26.29,25.87a55.89,55.89,0,0,0,32.12,9.6c15.31-.29,30.75-5.79,37.29-14.55,15.3-20.09.27-43.32-35.61-49.5C384.92,1906.13,355,1920.25,355.71,1940Z"/><path class="cls-2" d="M250,1954.31c20.72-20.51,44.22-40.74,63.28-62.09h60.65c-26.3,33.79-65.93,64.53-94.58,97a21.32,21.32,0,0,1-2.93,2.7H250Z"/><path class="cls-2" d="M460,1094.67c-2.37-3-5-6-7.24-9,2.51.48,5,.91,7.65,1.18,2.36,2.58,5.15,5.21,7.66,7.79h31.15v-91.24c-1.95-2.85-3.76-5.64-5.84-8.49H455.58c1.24,1.74,2.49,3.62,3.89,5.36a72.24,72.24,0,0,0-19.47,3.06c-2.51-2.85-5.14-5.64-7.79-8.42H398.55c2.22,2.71,4,5.36,6.26,8.07-2.64-2.71-5.43-5.36-8.21-8.07H366c1.94,1.33,3.6,2.58,5.55,3.89.29.63.84,1.26,1.11,1.88,7.79,11.9,15.73,23.93,23.79,36a21.31,21.31,0,0,0-.41,8.9c-15.17-14.69-30-29.43-44.1-44.38-.7-2.08-1-4.18-1.52-6.26H325.67c3.05,3.48,6.11,6.95,9.32,10.43,8.2,24.48,27.4,47.57,57.58,62.81-5.71,2.49-5.71,8.28,2.22,9.66a109.12,109.12,0,0,0,14.89,1.61c5.28,5,10.29,10.15,15.29,15.22Zm6.39-57.44c-5.55-7.79-11.82-16.28-18.91-25,6.68-2.16,13.63-3.2,19.47-1.66.42.13.69.34,1.12.48,2.22,2.85,4.44,5.7,6.81,8.49,1,5.55-.84,12.09-1.81,15.43a42.59,42.59,0,0,1-3.2,7C468.78,1040.42,467.53,1038.76,466.42,1037.23Z"/><path class="cls-3" d="M425.26,1094.67l-2.51-7.72c25.6-5.21,46.46-18.64,46.46-40.33,0-28.45-35.61-42.7-71.5-42.85-.82-2.91-1.66-5.83-2.36-8.83H377.69c1,3.34,1.81,6.76,2.5,10-18.78,2.43-35.89,9-45.9,19.75a275,275,0,0,1-4.46-29.77H312c3.06,33.53,13.91,67.26,25.32,99.73Z"/><path class="cls-2" d="M415.8,1075.47c35.88-6.18,50.91-29.41,35.61-49.5-6.54-8.78-22-14.26-37.29-14.55A55.82,55.82,0,0,0,382,1021c-15.31,4.39-26,13.78-26.29,25.87C355,1066.64,384.92,1080.83,415.8,1075.47Z"/><path class="cls-2" d="M250,1032.57c20.72,20.58,44.22,40.82,63.28,62.1h60.65c-26.3-33.8-65.93-64.46-94.58-97a21.4,21.4,0,0,0-2.93-2.71H250Z"/><path class="cls-2" d="M425,1692.83c-5,5.07-10,10.16-15.29,15.23a106.05,106.05,0,0,0-14.89,1.61c-7.93,1.38-7.93,7.09-2.22,9.65-30.18,15.24-49.38,38.26-57.58,62.81-3.21,3.48-6.27,6.95-9.32,10.43h24.76c.55-2.1.82-4.17,1.52-6.25,14.06-15,28.93-29.77,44.1-44.38a20.94,20.94,0,0,0,.41,8.83q-12.09,18.15-23.79,36c-.27.56-.82,1.25-1.11,1.88-1.95,1.31-3.61,2.56-5.55,3.89H396.6c2.78-2.71,5.57-5.36,8.21-8.06-2.23,2.7-4,5.35-6.26,8.06h33.66c2.65-2.78,5.28-5.57,7.79-8.42a72.24,72.24,0,0,0,19.47,3.06c-1.4,1.74-2.65,3.55-3.89,5.36h37.83c2.08-2.85,3.89-5.7,5.84-8.49v-91.24H468.1c-2.51,2.58-5.3,5.21-7.66,7.79-2.64.27-5.14.7-7.65,1.18,2.24-3.06,4.87-6,7.24-9Zm44.93,52.71a42.87,42.87,0,0,1,3.2,7c1,3.35,2.78,9.89,1.81,15.44-2.37,2.79-4.59,5.64-6.81,8.49-.43.14-.7.36-1.12.49-5.84,1.53-12.79.49-19.47-1.74,7.09-8.62,13.36-17.11,18.91-24.9C467.53,1748.75,468.78,1747.08,469.9,1745.54Z"/><path class="cls-3" d="M425.26,1692.83l-2.51,7.72c25.6,5.21,46.46,18.64,46.46,40.34,0,28.37-35.61,42.7-71.5,42.84-.82,2.85-1.66,5.84-2.36,8.83H377.69q1.46-5.11,2.5-10c-18.78-2.44-35.89-9-45.9-19.76a275.35,275.35,0,0,0-4.46,29.77H312c3.06-33.59,13.91-67.26,25.32-99.73Z"/><path class="cls-2" d="M355.71,1740.61c.27,12.1,11,21.41,26.29,25.8a55.26,55.26,0,0,0,32.12,9.67c15.31-.29,30.75-5.78,37.29-14.54,15.3-20.1.27-43.33-35.61-49.51C384.92,1706.67,355,1720.86,355.71,1740.61Z"/><path class="cls-2" d="M250,1754.93c20.72-20.58,44.22-40.82,63.28-62.1h60.65c-26.3,33.8-65.93,64.46-94.58,97a21.4,21.4,0,0,1-2.93,2.71H250Z"/><path class="cls-2" d="M460,1294.06c-2.37-3-5-5.91-7.24-9,2.51.48,5,.91,7.65,1.18,2.36,2.58,5.15,5.21,7.66,7.79h31.15v-91.24c-1.95-2.79-3.76-5.64-5.84-8.49H455.58c1.24,1.81,2.49,3.62,3.89,5.36a72.24,72.24,0,0,0-19.47,3.06c-2.51-2.85-5.14-5.64-7.79-8.42H398.55c2.22,2.71,4,5.36,6.26,8.06-2.64-2.7-5.43-5.35-8.21-8.06H366c1.94,1.32,3.6,2.58,5.55,3.89.29.63.84,1.32,1.11,1.88q11.68,17.84,23.79,36a20.93,20.93,0,0,0-.41,8.83c-15.17-14.61-30-29.35-44.1-44.38-.7-2.08-1-4.16-1.52-6.25H325.67c3.05,3.48,6.11,7,9.32,10.43,8.2,24.55,27.4,47.57,57.58,62.81-5.71,2.56-5.71,8.27,2.22,9.65a106.05,106.05,0,0,0,14.89,1.61C415,1283.9,420,1289,425,1294.06Zm6.39-57.44c-5.55-7.79-11.82-16.28-18.91-24.9,6.68-2.24,13.63-3.28,19.47-1.74.42.13.69.34,1.12.49,2.22,2.85,4.44,5.69,6.81,8.49,1,5.55-.84,12.09-1.81,15.44a43.27,43.27,0,0,1-3.2,6.95C468.78,1239.81,467.53,1238.14,466.42,1236.62Z"/><path class="cls-3" d="M425.26,1294.06l-2.51-7.72c25.6-5.21,46.46-18.65,46.46-40.34,0-28.37-35.61-42.7-71.5-42.84-.82-2.85-1.66-5.84-2.36-8.83H377.69c1,3.4,1.81,6.75,2.5,10-18.78,2.44-35.89,9.05-45.9,19.76a275.35,275.35,0,0,1-4.46-29.77H312c3.06,33.58,13.91,67.25,25.32,99.73Z"/><path class="cls-2" d="M415.8,1274.86c35.88-6.18,50.91-29.41,35.61-49.51-6.54-8.76-22-14.26-37.29-14.54a55.26,55.26,0,0,0-32.12,9.67c-15.31,4.39-26,13.7-26.29,25.79C355,1266,384.92,1280.21,415.8,1274.86Z"/><path class="cls-2" d="M250,1232c20.72,20.58,44.22,40.82,63.28,62.1h60.65c-26.3-33.8-65.93-64.46-94.58-97a21.4,21.4,0,0,0-2.93-2.71H250Z"/><path class="cls-2" d="M425,1493.44c-5,5.07-10,10.16-15.29,15.16a119.67,119.67,0,0,0-14.89,1.68c-7.93,1.38-7.93,7.09-2.22,9.66-30.18,15.24-49.38,38.25-57.58,62.81-3.21,3.47-6.27,7-9.32,10.42h24.76c.55-2.09.82-4.17,1.52-6.26,14.06-15,28.93-29.76,44.1-44.44a21.2,21.2,0,0,0,.41,8.9c-8.06,12-16,24.14-23.79,36-.27.56-.82,1.26-1.11,1.88-1.95,1.31-3.61,2.57-5.55,3.89H396.6c2.78-2.7,5.57-5.35,8.21-8.06-2.23,2.71-4,5.36-6.26,8.06h33.66c2.65-2.77,5.28-5.57,7.79-8.41a78.21,78.21,0,0,0,19.47,3.06c-1.4,1.74-2.65,3.54-3.89,5.35h37.83c2.08-2.85,3.89-5.69,5.84-8.49v-91.24H468.1c-2.51,2.58-5.3,5.22-7.66,7.72-2.64.35-5.14.77-7.65,1.26,2.24-3.06,4.87-6,7.24-9Zm44.93,52.72a42.87,42.87,0,0,1,3.2,6.95c1,3.34,2.78,9.88,1.81,15.44-2.37,2.79-4.59,5.64-6.81,8.41a6.88,6.88,0,0,1-1.12.56c-5.84,1.47-12.79.48-19.47-1.74,7.09-8.61,13.36-17.1,18.91-24.89C467.53,1549.36,468.78,1547.7,469.9,1546.16Z"/><path class="cls-3" d="M425.26,1493.44c-.84,2.58-1.67,5.15-2.51,7.65,25.6,5.29,46.46,18.65,46.46,40.34,0,28.44-35.61,42.7-71.5,42.84-.82,2.92-1.66,5.91-2.36,8.9H377.69c1-3.4,1.81-6.75,2.5-10.08-18.78-2.37-35.89-9-45.9-19.68a275.17,275.17,0,0,0-4.46,29.76H312c3.06-33.58,13.91-67.32,25.32-99.73Z"/><path class="cls-2" d="M355.71,1541.16c.27,12.16,11,21.48,26.29,25.86a55.26,55.26,0,0,0,32.12,9.67c15.31-.28,30.75-5.78,37.29-14.54,15.3-20.17.27-43.32-35.61-49.51C384.92,1507.29,355,1521.4,355.71,1541.16Z"/><path class="cls-2" d="M250,1555.54c20.72-20.58,44.22-40.82,63.28-62.1h60.65c-26.3,33.8-65.93,64.47-94.58,97a21.32,21.32,0,0,1-2.93,2.7H250Z"/><path class="cls-2" d="M460,1493.44c-2.37-3-5-5.91-7.24-9,2.51.49,5,.91,7.65,1.25,2.36,2.51,5.15,5.15,7.66,7.72h31.15V1402.2c-1.95-2.79-3.76-5.64-5.84-8.48H455.58c1.24,1.8,2.49,3.61,3.89,5.35a78.21,78.21,0,0,0-19.47,3.06c-2.51-2.85-5.14-5.64-7.79-8.41H398.55c2.22,2.7,4,5.35,6.26,8.06-2.64-2.71-5.43-5.36-8.21-8.06H366c1.94,1.32,3.6,2.57,5.55,3.88.29.63.84,1.33,1.11,1.88,7.79,11.9,15.73,24,23.79,36a21.2,21.2,0,0,0-.41,8.9C380.88,1429.74,366,1415,352,1400c-.7-2.08-1-4.16-1.52-6.25H325.67c3.05,3.47,6.11,7,9.32,10.42,8.2,24.56,27.4,47.57,57.58,62.81-5.71,2.57-5.71,8.28,2.22,9.66a119.67,119.67,0,0,0,14.89,1.68c5.28,5,10.29,10.08,15.29,15.15Zm6.39-57.44c-5.55-7.79-11.82-16.28-18.91-24.89,6.68-2.24,13.63-3.21,19.47-1.74a7.71,7.71,0,0,1,1.12.55c2.22,2.78,4.44,5.63,6.81,8.42,1,5.56-.84,12.09-1.81,15.44a42.87,42.87,0,0,1-3.2,7C468.78,1439.19,467.53,1437.53,466.42,1436Z"/><path class="cls-3" d="M425.26,1493.44c-.84-2.57-1.67-5.07-2.51-7.64,25.6-5.22,46.46-18.65,46.46-40.34,0-28.44-35.61-42.7-71.5-42.84-.82-2.92-1.66-5.91-2.36-8.9H377.69c1,3.4,1.81,6.75,2.5,10.08-18.78,2.36-35.89,9-45.9,19.68a275.17,275.17,0,0,1-4.46-29.76H312c3.06,33.58,13.91,67.32,25.32,99.72Z"/><path class="cls-2" d="M415.8,1474.24c35.88-6.18,50.91-29.34,35.61-49.5-6.54-8.76-22-14.26-37.29-14.55a55.33,55.33,0,0,0-32.12,9.68c-15.31,4.38-26,13.7-26.29,25.86C355,1465.49,384.92,1479.6,415.8,1474.24Z"/><path class="cls-2" d="M250,1431.35c20.72,20.58,44.22,40.82,63.28,62.09h60.65c-26.3-33.79-65.93-64.46-94.58-97a21.32,21.32,0,0,0-2.93-2.7H250Z"/><path class="cls-2" d="M425,1294.06c-5,5.07-10,10.15-15.29,15.15a121.6,121.6,0,0,0-14.89,1.68c-7.93,1.39-7.93,7.1-2.22,9.66-30.18,15.24-49.38,38.26-57.58,62.81-3.21,3.41-6.27,6.88-9.32,10.36h24.76c.55-2,.82-4.11,1.52-6.2,14.06-15,28.93-29.75,44.1-44.44a21.2,21.2,0,0,0,.41,8.9c-8.06,12-16,24.15-23.79,36-.27.62-.82,1.32-1.11,1.93-1.95,1.26-3.61,2.58-5.55,3.84H396.6c2.78-2.65,5.57-5.29,8.21-8-2.23,2.7-4,5.34-6.26,8h33.66c2.65-2.78,5.28-5.57,7.79-8.35a78.21,78.21,0,0,0,19.47,3.06c-1.4,1.74-2.65,3.55-3.89,5.29h37.83c2.08-2.78,3.89-5.63,5.84-8.49v-91.17H468.1c-2.51,2.58-5.3,5.14-7.66,7.72-2.64.27-5.14.7-7.65,1.18,2.24-3,4.87-5.91,7.24-8.9Zm44.93,52.64a48.76,48.76,0,0,1,3.2,7c1,3.41,2.78,9.95,1.81,15.44-2.37,2.85-4.59,5.7-6.81,8.48-.43.14-.7.43-1.12.48-5.84,1.54-12.79.56-19.47-1.66,7.09-8.62,13.36-17.11,18.91-25C467.53,1349.9,468.78,1348.31,469.9,1346.7Z"/><path class="cls-3" d="M425.26,1294.06c-.84,2.58-1.67,5.07-2.51,7.65,25.6,5.21,46.46,18.64,46.46,40.33,0,28.45-35.61,42.7-71.5,42.85-.82,2.92-1.66,5.91-2.36,8.83H377.69q1.46-5,2.5-10c-18.78-2.43-35.89-9-45.9-19.68a274.1,274.1,0,0,0-4.46,29.7H312c3.06-33.52,13.91-67.26,25.32-99.66Z"/><path class="cls-2" d="M355.71,1341.77c.27,12.17,11,21.48,26.29,25.87a54.8,54.8,0,0,0,32.12,9.6c15.31-.29,30.75-5.71,37.29-14.55,15.3-20.09.27-43.25-35.61-49.5C384.92,1307.9,355,1322,355.71,1341.77Z"/><path class="cls-2" d="M250,1356.16c20.72-20.58,44.22-40.82,63.28-62.1h60.65c-26.3,33.8-65.93,64.46-94.58,97a20.34,20.34,0,0,1-2.93,2.65H250Z"/><path class="cls-2" d="M460,1692.83c-2.37-3-5-5.91-7.24-8.9,2.51.48,5,.9,7.65,1.18,2.36,2.58,5.15,5.14,7.66,7.72h31.15v-91.17c-1.95-2.86-3.76-5.71-5.84-8.49H455.58c1.24,1.74,2.49,3.55,3.89,5.29a78.21,78.21,0,0,0-19.47,3.06c-2.51-2.78-5.14-5.57-7.79-8.35H398.55c2.22,2.64,4,5.29,6.26,8-2.64-2.7-5.43-5.35-8.21-8H366c1.94,1.26,3.6,2.58,5.55,3.83.29.62.84,1.31,1.11,1.94,7.79,11.82,15.73,23.93,23.79,36a21.25,21.25,0,0,0-.41,8.91c-15.17-14.69-30-29.43-44.1-44.44-.7-2.1-1-4.17-1.52-6.2H325.67c3.05,3.48,6.11,6.95,9.32,10.36,8.2,24.55,27.4,47.57,57.58,62.81-5.71,2.56-5.71,8.27,2.22,9.65a119.7,119.7,0,0,0,14.89,1.69c5.28,5,10.29,10.08,15.29,15.15Zm6.39-57.37c-5.55-7.86-11.82-16.35-18.91-25,6.68-2.22,13.63-3.2,19.47-1.66.42.05.69.34,1.12.48,2.22,2.78,4.44,5.63,6.81,8.47,1,5.5-.84,12-1.81,15.44a48.37,48.37,0,0,1-3.2,7C468.78,1638.58,467.53,1637,466.42,1635.46Z"/><path class="cls-3" d="M425.26,1692.83c-.84-2.58-1.67-5.07-2.51-7.65,25.6-5.21,46.46-18.64,46.46-40.33,0-28.45-35.61-42.7-71.5-42.85-.82-2.92-1.66-5.91-2.36-8.83H377.69q1.46,5,2.5,10c-18.78,2.43-35.89,9-45.9,19.68a274.1,274.1,0,0,1-4.46-29.7H312c3.06,33.52,13.91,67.26,25.32,99.66Z"/><path class="cls-2" d="M415.8,1673.7c35.88-6.25,50.91-29.41,35.61-49.51-6.54-8.83-22-14.25-37.29-14.54a54.73,54.73,0,0,0-32.12,9.6c-15.31,4.39-26,13.7-26.29,25.87C355,1664.87,384.92,1679,415.8,1673.7Z"/><path class="cls-2" d="M250,1630.73c20.72,20.58,44.22,40.82,63.28,62.1h60.65c-26.3-33.8-65.93-64.46-94.58-97a20.87,20.87,0,0,0-2.93-2.64H250Z"/><path class="cls-2" d="M425,1094.67c-5,5.07-10,10.16-15.29,15.16a134.4,134.4,0,0,0-14.89,1.61c-7.93,1.38-7.93,7.16-2.22,9.72-30.18,15.17-49.38,38.26-57.58,62.8-3.21,3.42-6.27,6.89-9.32,10.37h24.76c.55-2.08.82-4.17,1.52-6.2,14.06-15,28.93-29.75,44.1-44.43a21.31,21.31,0,0,0,.41,8.9c-8.06,12-16,24.07-23.79,36-.27.63-.82,1.26-1.11,1.88-1.95,1.31-3.61,2.64-5.55,3.89H396.6c2.78-2.65,5.57-5.36,8.21-8.06-2.23,2.7-4,5.35-6.26,8.06h33.66c2.65-2.78,5.28-5.57,7.79-8.35a74.86,74.86,0,0,0,19.47,3c-1.4,1.81-2.65,3.62-3.89,5.36h37.83c2.08-2.78,3.89-5.63,5.84-8.49v-91.17H468.1c-2.51,2.58-5.3,5.14-7.66,7.72-2.64.27-5.14.7-7.65,1.18,2.24-3,4.87-6,7.24-8.9Zm44.93,52.64a45.57,45.57,0,0,1,3.2,7c1,3.33,2.78,9.87,1.81,15.44-2.37,2.85-4.59,5.62-6.81,8.47a6.36,6.36,0,0,1-1.12.49c-5.84,1.54-12.79.55-19.47-1.67,7.09-8.62,13.36-17.18,18.91-25C467.53,1150.52,468.78,1148.92,469.9,1147.31Z"/><path class="cls-3" d="M425.26,1094.67c-.84,2.51-1.67,5.07-2.51,7.65,25.6,5.21,46.46,18.65,46.46,40.34,0,28.44-35.61,42.7-71.5,42.84-.82,2.92-1.66,5.91-2.36,8.83H377.69c1-3.33,1.81-6.68,2.5-10-18.78-2.44-35.89-9-45.9-19.69a274.1,274.1,0,0,0-4.46,29.7H312c3.06-33.51,13.91-67.25,25.32-99.66Z"/><path class="cls-2" d="M355.71,1142.39c.27,12.16,11,21.47,26.29,25.86a55.23,55.23,0,0,0,32.12,9.6c15.31-.28,30.75-5.71,37.29-14.54,15.3-20.1.27-43.33-35.61-49.51C384.92,1108.52,355,1122.63,355.71,1142.39Z"/><path class="cls-2" d="M250,1156.77c20.72-20.58,44.22-40.82,63.28-62.1h60.65c-26.3,33.8-65.93,64.47-94.58,97a20.34,20.34,0,0,1-2.93,2.65H250Z"/><path class="cls-2" d="M460,1892.22c-2.37-2.92-5-5.91-7.24-8.91,2.51.49,5,.92,7.65,1.19,2.36,2.57,5.15,5.14,7.66,7.72h31.15v-91.17c-1.95-2.87-3.76-5.71-5.84-8.49H455.58c1.24,1.74,2.49,3.54,3.89,5.35a75.29,75.29,0,0,0-19.47,3c-2.51-2.77-5.14-5.56-7.79-8.34H398.55c2.22,2.7,4,5.35,6.26,8-2.64-2.64-5.43-5.34-8.21-8H366c1.94,1.32,3.6,2.58,5.55,3.89.29.55.84,1.25,1.11,1.88,7.79,11.89,15.73,23.92,23.79,36a21.31,21.31,0,0,0-.41,8.9c-15.17-14.68-30-29.42-44.1-44.44-.7-2.09-1-4.11-1.52-6.19H325.67c3.05,3.47,6.11,7,9.32,10.37,8.2,24.54,27.4,47.63,57.58,62.79-5.71,2.57-5.71,8.35,2.22,9.73a134.4,134.4,0,0,0,14.89,1.61c5.28,5,10.29,10.09,15.29,15.16Zm6.39-57.37c-5.55-7.8-11.82-16.28-18.91-25,6.68-2.22,13.63-3.21,19.47-1.67a6.36,6.36,0,0,1,1.12.49c2.22,2.84,4.44,5.62,6.81,8.47,1,5.57-.84,12.11-1.81,15.44a45.46,45.46,0,0,1-3.2,7C468.78,1838,467.53,1836.37,466.42,1834.85Z"/><path class="cls-3" d="M425.26,1892.22c-.84-2.51-1.67-5.07-2.51-7.65,25.6-5.22,46.46-18.65,46.46-40.34,0-28.44-35.61-42.7-71.5-42.84-.82-2.92-1.66-5.91-2.36-8.83H377.69c1,3.33,1.81,6.68,2.5,10-18.78,2.44-35.89,9-45.9,19.68a273.93,273.93,0,0,1-4.46-29.69H312c3.06,33.51,13.91,67.25,25.32,99.66Z"/><path class="cls-2" d="M415.8,1873.09c35.88-6.18,50.91-29.41,35.61-49.51-6.54-8.83-22-14.26-37.29-14.54a55.74,55.74,0,0,0-32.12,9.6c-15.31,4.38-26,13.7-26.29,25.86C355,1864.26,384.92,1878.37,415.8,1873.09Z"/><path class="cls-2" d="M250,1830.12c20.72,20.58,44.22,40.82,63.28,62.1h60.65c-26.3-33.8-65.93-64.47-94.58-97a19.77,19.77,0,0,0-2.93-2.65H250Z"/><path class="cls-2" d="M40,897.27c2.37,3,5,6,7.24,9-2.51-.48-5-.91-7.65-1.18-2.36-2.58-5.15-5.14-7.65-7.79H.75v91.24c2,2.85,3.76,5.71,5.84,8.49H44.42c-1.24-1.74-2.49-3.55-3.89-5.36A72.24,72.24,0,0,0,60,988.58c2.51,2.85,5.14,5.64,7.79,8.42h33.66c-2.22-2.71-4-5.36-6.26-8.06,2.64,2.7,5.43,5.35,8.21,8.06H134c-1.94-1.32-3.6-2.58-5.55-3.89-.29-.62-.84-1.25-1.11-1.88-7.79-11.89-15.73-23.93-23.79-36a21.31,21.31,0,0,0,.41-8.9c15.17,14.68,30,29.42,44.1,44.43.7,2,1,4.12,1.52,6.2h24.77c-3.06-3.48-6.12-7-9.33-10.43-8.2-24.48-27.4-47.57-57.58-62.81,5.71-2.49,5.71-8.27-2.22-9.65a119.49,119.49,0,0,0-14.89-1.61C85,907.5,80,902.34,75,897.27Zm-6.39,57.44c5.55,7.79,11.82,16.28,18.91,25-6.68,2.17-13.63,3.21-19.47,1.67-.42-.13-.69-.34-1.11-.49-2.23-2.85-4.45-5.62-6.82-8.49-1-5.55.84-12.09,1.81-15.44A43.27,43.27,0,0,1,30.1,950C31.22,951.52,32.47,953.19,33.58,954.71Z"/><path class="cls-3" d="M74.74,897.27c.84,2.58,1.68,5.14,2.51,7.72-25.6,5.21-46.46,18.65-46.46,40.34,0,28.44,35.61,42.7,71.5,42.84.84,2.92,1.66,5.84,2.36,8.83h17.66c-1-3.33-1.81-6.68-2.5-10,18.78-2.44,35.89-9,45.9-19.69a274.1,274.1,0,0,1,4.46,29.7H188c-3.06-33.53-13.91-67.25-25.32-99.73Z"/><path class="cls-2" d="M84.2,916.47C48.32,922.65,33.29,945.88,48.59,966c6.54,8.76,22,14.26,37.29,14.54a55.74,55.74,0,0,0,32.12-9.6c15.31-4.39,26-13.77,26.29-25.86C145,925.3,115.08,911.19,84.2,916.47Z"/><path class="cls-2" d="M250,959.37c-20.72-20.51-44.22-40.75-63.28-62.1H126.07c26.3,33.8,65.93,64.54,94.58,97a21.4,21.4,0,0,0,2.93,2.71H250Z"/><path class="cls-2" d="M75,99.73C80,94.66,85,89.5,90.32,84.5a107.56,107.56,0,0,0,14.89-1.61c7.93-1.38,7.93-7.16,2.22-9.65C137.61,58,156.81,34.91,165,10.43,168.22,7,171.28,3.48,174.34,0H149.57c-.55,2.08-.82,4.17-1.52,6.25C134,21.21,119.12,36,104,50.63a21.31,21.31,0,0,0-.41-8.9c8.06-12,16-24.07,23.79-36,.27-.63.82-1.26,1.11-1.88C130.39,2.58,132.05,1.32,134,0H103.4c-2.78,2.71-5.57,5.36-8.21,8.06,2.23-2.7,4-5.35,6.26-8.06H67.79C65.14,2.78,62.51,5.57,60,8.42A72.24,72.24,0,0,0,40.53,5.36c1.4-1.74,2.65-3.62,3.89-5.36H6.59C4.51,2.85,2.7,5.64.75,8.49V99.73H31.91c2.5-2.58,5.29-5.21,7.65-7.79,2.64-.27,5.14-.7,7.65-1.18-2.24,3-4.87,6-7.24,9ZM30.1,47a42.69,42.69,0,0,1-3.2-7c-1-3.33-2.78-9.87-1.81-15.42,2.37-2.8,4.59-5.64,6.82-8.49.42-.15.69-.36,1.11-.49,5.84-1.54,12.79-.5,19.47,1.67C45.4,26,39.13,34.5,33.58,42.29,32.47,43.81,31.22,45.48,30.1,47Z"/><path class="cls-3" d="M74.74,99.73c.84-2.58,1.68-5.14,2.51-7.72C51.65,86.8,30.79,73.36,30.79,51.67c0-28.44,35.61-42.7,71.5-42.84C103.13,5.91,104,3,104.65,0h17.66c-1,3.33-1.81,6.75-2.5,10,18.78,2.44,35.89,9,45.9,19.76A275.35,275.35,0,0,0,170.17,0H188c-3.06,33.53-13.91,67.25-25.32,99.73Z"/><path class="cls-2" d="M144.29,51.94c-.27-12.09-11-21.47-26.29-25.86a55.74,55.74,0,0,0-32.12-9.6C70.57,16.76,55.13,22.25,48.59,31c-15.3,20.1-.27,43.33,35.61,49.51C115.08,85.88,145,71.7,144.29,51.94Z"/><path class="cls-2" d="M250,37.63c-20.72,20.58-44.22,40.82-63.28,62.1H126.07c26.3-33.8,65.93-64.46,94.58-97A21.4,21.4,0,0,1,223.58,0H250Z"/><path class="cls-2" d="M40,697.89c2.37,3,5,5.91,7.24,9-2.51-.49-5-.91-7.65-1.18-2.36-2.58-5.15-5.22-7.65-7.79H.75v91.24c2,2.79,3.76,5.64,5.84,8.48H44.42c-1.24-1.8-2.49-3.61-3.89-5.35A72.24,72.24,0,0,0,60,789.2c2.51,2.85,5.14,5.64,7.79,8.41h33.66c-2.22-2.7-4-5.35-6.26-8.06,2.64,2.71,5.43,5.36,8.21,8.06H134c-1.94-1.32-3.6-2.57-5.55-3.88-.29-.63-.84-1.33-1.11-1.88q-11.68-17.85-23.79-36A20.93,20.93,0,0,0,104,747c15.17,14.61,30,29.36,44.1,44.38.7,2.08,1,4.16,1.52,6.25h24.77c-3.06-3.47-6.12-7-9.33-10.42-8.2-24.56-27.4-47.57-57.58-62.81,5.71-2.57,5.71-8.28-2.22-9.66a109.12,109.12,0,0,0-14.89-1.61C85,708,80,703,75,697.89Zm-6.39,57.44c5.55,7.79,11.82,16.28,18.91,24.89C45.81,782.46,38.86,783.5,33,782c-.42-.13-.69-.34-1.11-.48-2.23-2.85-4.45-5.7-6.82-8.49-1-5.56.84-12.09,1.81-15.44a42.87,42.87,0,0,1,3.2-6.95C31.22,752.14,32.47,753.8,33.58,755.33Z"/><path class="cls-3" d="M74.74,697.89q1.26,3.86,2.51,7.72c-25.6,5.21-46.46,18.64-46.46,40.33,0,28.37,35.61,42.7,71.5,42.84.84,2.85,1.66,5.84,2.36,8.83h17.66c-1-3.4-1.81-6.75-2.5-10,18.78-2.43,35.89-9,45.9-19.75a275.17,275.17,0,0,1,4.46,29.76H188c-3.06-33.58-13.91-67.25-25.32-99.72Z"/><path class="cls-2" d="M84.2,717.09c-35.88,6.18-50.91,29.41-35.61,49.5,6.54,8.76,22,14.26,37.29,14.55A55.33,55.33,0,0,0,118,771.46c15.31-4.38,26-13.7,26.29-25.79C145,725.92,115.08,711.73,84.2,717.09Z"/><path class="cls-2" d="M250,760c-20.72-20.58-44.22-40.82-63.28-62.09H126.07c26.3,33.79,65.93,64.46,94.58,97a21.32,21.32,0,0,0,2.93,2.7H250Z"/><path class="cls-2" d="M75,299.11C80,294,85,289,90.32,283.89a109.12,109.12,0,0,0,14.89-1.61c7.93-1.38,7.93-7.09,2.22-9.66,30.18-15.24,49.38-38.25,57.58-62.81,3.21-3.47,6.27-6.95,9.33-10.42H149.57c-.55,2.09-.82,4.17-1.52,6.25C134,220.66,119.12,235.41,104,250a20.93,20.93,0,0,0-.41-8.83q12.09-18.16,23.79-36c.27-.55.82-1.25,1.11-1.88,1.95-1.31,3.61-2.56,5.55-3.88H103.4c-2.78,2.7-5.57,5.35-8.21,8.06,2.23-2.71,4-5.36,6.26-8.06H67.79c-2.65,2.77-5.28,5.56-7.79,8.41a72.24,72.24,0,0,0-19.47-3.06c1.4-1.74,2.65-3.55,3.89-5.35H6.59c-2.08,2.84-3.89,5.69-5.84,8.48v91.24H31.91c2.5-2.57,5.29-5.21,7.65-7.79,2.64-.27,5.14-.69,7.65-1.18-2.24,3.06-4.87,6-7.24,9ZM30.1,246.4a42.87,42.87,0,0,1-3.2-7c-1-3.35-2.78-9.88-1.81-15.44,2.37-2.79,4.59-5.64,6.82-8.49.42-.14.69-.35,1.11-.48,5.84-1.54,12.79-.5,19.47,1.74-7.09,8.61-13.36,17.1-18.91,24.89C32.47,243.2,31.22,244.86,30.1,246.4Z"/><path class="cls-3" d="M74.74,299.11q1.26-3.86,2.51-7.72c-25.6-5.21-46.46-18.64-46.46-40.33,0-28.37,35.61-42.7,71.5-42.84.84-2.85,1.66-5.84,2.36-8.83h17.66c-1,3.4-1.81,6.75-2.5,10,18.78,2.43,35.89,9,45.9,19.75a275.17,275.17,0,0,0,4.46-29.76H188c-3.06,33.58-13.91,67.25-25.32,99.72Z"/><path class="cls-2" d="M144.29,251.33c-.27-12.09-11-21.41-26.29-25.79a55.33,55.33,0,0,0-32.12-9.68c-15.31.29-30.75,5.79-37.29,14.55-15.3,20.09-.27,43.32,35.61,49.5C115.08,285.27,145,271.08,144.29,251.33Z"/><path class="cls-2" d="M250,237c-20.72,20.58-44.22,40.82-63.28,62.09H126.07c26.3-33.79,65.93-64.46,94.58-97a21.32,21.32,0,0,1,2.93-2.7H250Z"/><path class="cls-2" d="M40,498.5c2.37,3,5,5.91,7.24,9-2.51-.48-5-.91-7.65-1.25-2.36-2.51-5.15-5.14-7.65-7.72H.75v91.24c2,2.79,3.76,5.64,5.84,8.49H44.42c-1.24-1.81-2.49-3.62-3.89-5.36A78.21,78.21,0,0,0,60,589.81c2.51,2.85,5.14,5.64,7.79,8.42h33.66c-2.22-2.71-4-5.36-6.26-8.06,2.64,2.7,5.43,5.35,8.21,8.06H134c-1.94-1.33-3.6-2.58-5.55-3.89-.29-.63-.84-1.32-1.11-1.88-7.79-11.89-15.73-24-23.79-36a21.25,21.25,0,0,0,.41-8.91c15.17,14.69,30,29.43,44.1,44.44.7,2.1,1,4.17,1.52,6.27h24.77c-3.06-3.48-6.12-7-9.33-10.43-8.2-24.55-27.4-47.57-57.58-62.81,5.71-2.56,5.71-8.27-2.22-9.65a119.7,119.7,0,0,0-14.89-1.69C85,508.66,80,503.57,75,498.5Zm-6.39,57.44c5.55,7.79,11.82,16.28,18.91,24.9-6.68,2.22-13.63,3.2-19.47,1.74a7.22,7.22,0,0,1-1.11-.56c-2.23-2.78-4.45-5.63-6.82-8.42-1-5.55.84-12.09,1.81-15.44a42.87,42.87,0,0,1,3.2-6.95C31.22,552.75,32.47,554.42,33.58,555.94Z"/><path class="cls-3" d="M74.74,498.5c.84,2.58,1.68,5.14,2.51,7.65-25.6,5.28-46.46,18.64-46.46,40.33,0,28.45,35.61,42.7,71.5,42.85.84,2.92,1.66,5.91,2.36,8.9h17.66c-1-3.41-1.81-6.75-2.5-10.09,18.78-2.36,35.89-9,45.9-19.68a275.35,275.35,0,0,1,4.46,29.77H188c-3.06-33.59-13.91-67.33-25.32-99.73Z"/><path class="cls-2" d="M84.2,517.7C48.32,523.88,33.29,547,48.59,567.21c6.54,8.76,22,14.25,37.29,14.54A55.26,55.26,0,0,0,118,572.08c15.31-4.39,26-13.7,26.29-25.87C145,526.46,115.08,512.34,84.2,517.7Z"/><path class="cls-2" d="M250,560.6c-20.72-20.58-44.22-40.82-63.28-62.1H126.07c26.3,33.8,65.93,64.46,94.58,97a21.4,21.4,0,0,0,2.93,2.71H250Z"/><path class="cls-2" d="M75,498.5c5-5.07,10-10.16,15.29-15.15a119.7,119.7,0,0,0,14.89-1.69c7.93-1.38,7.93-7.09,2.22-9.65,30.18-15.24,49.38-38.26,57.58-62.81,3.21-3.41,6.27-6.95,9.33-10.43H149.57c-.55,2.1-.82,4.17-1.52,6.25-14.06,15-28.93,29.77-44.1,44.46a21.25,21.25,0,0,0-.41-8.91c8.06-12,16-24.14,23.79-36,.27-.56.82-1.25,1.11-1.88,1.95-1.31,3.61-2.56,5.55-3.89H103.4c-2.78,2.71-5.57,5.36-8.21,8.06,2.23-2.7,4-5.35,6.26-8.06H67.79c-2.65,2.78-5.28,5.57-7.79,8.42a78.21,78.21,0,0,0-19.47-3.06c1.4-1.74,2.65-3.55,3.89-5.36H6.59c-2.08,2.85-3.89,5.7-5.84,8.49V498.5H31.91c2.5-2.58,5.29-5.21,7.65-7.72,2.64-.34,5.14-.77,7.65-1.25-2.24,3.06-4.87,6-7.24,9ZM30.1,445.79a42.87,42.87,0,0,1-3.2-7c-1-3.35-2.78-9.89-1.81-15.44,2.37-2.79,4.59-5.64,6.82-8.42a7.22,7.22,0,0,1,1.11-.56c5.84-1.46,12.79-.49,19.47,1.74-7.09,8.62-13.36,17.11-18.91,24.9C32.47,442.58,31.22,444.25,30.1,445.79Z"/><path class="cls-3" d="M74.74,498.5c.84-2.58,1.68-5.07,2.51-7.65-25.6-5.21-46.46-18.64-46.46-40.33,0-28.45,35.61-42.7,71.5-42.85.84-2.92,1.66-5.91,2.36-8.9h17.66c-1,3.41-1.81,6.75-2.5,10.09,18.78,2.36,35.89,9,45.9,19.68a275.35,275.35,0,0,0,4.46-29.77H188c-3.06,33.59-13.91,67.33-25.32,99.73Z"/><path class="cls-2" d="M144.29,450.79c-.27-12.17-11-21.48-26.29-25.87a55.26,55.26,0,0,0-32.12-9.67c-15.31.29-30.75,5.78-37.29,14.54C33.29,450,48.32,473.12,84.2,479.3,115.08,484.66,145,470.54,144.29,450.79Z"/><path class="cls-2" d="M250,436.4c-20.72,20.58-44.22,40.82-63.28,62.1H126.07c26.3-33.8,65.93-64.46,94.58-97a21.4,21.4,0,0,1,2.93-2.71H250Z"/><path class="cls-2" d="M40,299.11c2.37,3,5,5.92,7.24,8.91-2.51-.49-5-.92-7.65-1.19-2.36-2.57-5.15-5.14-7.65-7.72H.75v91.17c2,2.87,3.76,5.71,5.84,8.49H44.42c-1.24-1.74-2.49-3.54-3.89-5.28A78.68,78.68,0,0,0,60,390.43c2.51,2.77,5.14,5.56,7.79,8.34h33.66c-2.22-2.65-4-5.28-6.26-8,2.64,2.71,5.43,5.34,8.21,8H134c-1.94-1.25-3.6-2.58-5.55-3.83-.29-.61-.84-1.31-1.11-1.94-7.79-11.82-15.73-23.92-23.79-36a21.2,21.2,0,0,0,.41-8.9c15.17,14.68,30,29.42,44.1,44.44.7,2.09,1,4.17,1.52,6.19h24.77c-3.06-3.47-6.12-6.95-9.33-10.35-8.2-24.56-27.4-47.57-57.58-62.81,5.71-2.57,5.71-8.28-2.22-9.66a119.67,119.67,0,0,0-14.89-1.68C85,309.27,80,304.18,75,299.11Zm-6.39,57.37c5.55,7.87,11.82,16.36,18.91,25-6.68,2.22-13.63,3.21-19.47,1.67a6,6,0,0,1-1.11-.49c-2.23-2.77-4.45-5.62-6.82-8.47-1-5.5.84-12,1.81-15.44a48.76,48.76,0,0,1,3.2-7C31.22,353.37,32.47,355,33.58,356.48Z"/><path class="cls-3" d="M74.74,299.11c.84,2.58,1.68,5.07,2.51,7.65C51.65,312,30.79,325.41,30.79,347.1c0,28.44,35.61,42.7,71.5,42.84.84,2.92,1.66,5.91,2.36,8.83h17.66c-1-3.33-1.81-6.68-2.5-10,18.78-2.44,35.89-9,45.9-19.68a273.93,273.93,0,0,1,4.46,29.69H188c-3.06-33.51-13.91-67.25-25.32-99.66Z"/><path class="cls-2" d="M84.2,318.24c-35.88,6.26-50.91,29.41-35.61,49.51,6.54,8.83,22,14.26,37.29,14.54a54.73,54.73,0,0,0,32.12-9.6c15.31-4.38,26-13.7,26.29-25.86C145,327.07,115.08,313,84.2,318.24Z"/><path class="cls-2" d="M250,361.21c-20.72-20.58-44.22-40.82-63.28-62.1H126.07c26.3,33.8,65.93,64.47,94.58,97a19.77,19.77,0,0,0,2.93,2.65H250Z"/><path class="cls-2" d="M75,697.89c5-5.07,10-10.16,15.29-15.16a119.67,119.67,0,0,0,14.89-1.68c7.93-1.38,7.93-7.09,2.22-9.66,30.18-15.24,49.38-38.25,57.58-62.81,3.21-3.4,6.27-6.88,9.33-10.35H149.57c-.55,2-.82,4.1-1.52,6.19-14.06,15-28.93,29.76-44.1,44.44a21.2,21.2,0,0,0-.41-8.9c8.06-12,16-24.14,23.79-36,.27-.63.82-1.33,1.11-1.94,1.95-1.25,3.61-2.58,5.55-3.83H103.4c-2.78,2.63-5.57,5.28-8.21,8,2.23-2.71,4-5.36,6.26-8H67.79c-2.65,2.78-5.28,5.57-7.79,8.34a78.68,78.68,0,0,0-19.47-3.06c1.4-1.74,2.65-3.54,3.89-5.28H6.59C4.51,601,2.7,603.85.75,606.72v91.17H31.91c2.5-2.58,5.29-5.15,7.65-7.72,2.64-.29,5.14-.7,7.65-1.19-2.24,3-4.87,5.91-7.24,8.91ZM30.1,645.24a48.76,48.76,0,0,1-3.2-7c-1-3.4-2.78-9.94-1.81-15.44,2.37-2.85,4.59-5.7,6.82-8.47a6,6,0,0,1,1.11-.49c5.84-1.54,12.79-.55,19.47,1.67-7.09,8.61-13.36,17.1-18.91,25C32.47,642,31.22,643.63,30.1,645.24Z"/><path class="cls-3" d="M74.74,697.89c.84-2.58,1.68-5.07,2.51-7.65C51.65,685,30.79,671.59,30.79,649.9c0-28.44,35.61-42.7,71.5-42.84.84-2.92,1.66-5.91,2.36-8.83h17.66c-1,3.33-1.81,6.68-2.5,10,18.78,2.44,35.89,9,45.9,19.68a273.93,273.93,0,0,0,4.46-29.69H188c-3.06,33.51-13.91,67.25-25.32,99.66Z"/><path class="cls-2" d="M144.29,650.17c-.27-12.16-11-21.48-26.29-25.86a54.73,54.73,0,0,0-32.12-9.6c-15.31.28-30.75,5.71-37.29,14.54-15.3,20.1-.27,43.25,35.61,49.51C115.08,684,145,669.93,144.29,650.17Z"/><path class="cls-2" d="M250,635.79c-20.72,20.58-44.22,40.82-63.28,62.1H126.07c26.3-33.8,65.93-64.47,94.58-97a20.8,20.8,0,0,1,2.93-2.63H250Z"/><path class="cls-2" d="M40,99.73c2.37,2.92,5,5.91,7.24,8.9-2.51-.48-5-.91-7.65-1.18-2.36-2.58-5.15-5.14-7.65-7.72H.75V190.9c2,2.86,3.76,5.71,5.84,8.49H44.42c-1.24-1.74-2.49-3.55-3.89-5.36A74.86,74.86,0,0,0,60,191c2.51,2.78,5.14,5.57,7.79,8.35h33.66c-2.22-2.71-4-5.36-6.26-8.07,2.64,2.71,5.43,5.42,8.21,8.07H134c-1.94-1.26-3.6-2.58-5.55-3.89-.29-.63-.84-1.26-1.11-1.88-7.79-11.9-15.73-23.93-23.79-36a21.31,21.31,0,0,0,.41-8.9c15.17,14.69,30,29.43,44.1,44.44.7,2,1,4.12,1.52,6.2h24.77c-3.06-3.48-6.12-6.95-9.33-10.37-8.2-24.54-27.4-47.63-57.58-62.8,5.71-2.56,5.71-8.35-2.22-9.73a136.84,136.84,0,0,0-14.89-1.61C85,109.88,80,104.8,75,99.73ZM33.58,157.1c5.55,7.79,11.82,16.35,18.91,25-6.68,2.22-13.63,3.2-19.47,1.66-.42,0-.69-.34-1.11-.48-2.23-2.85-4.45-5.63-6.82-8.48-1-5.56.84-12.1,1.81-15.44a45.46,45.46,0,0,1,3.2-7C31.22,154,32.47,155.57,33.58,157.1Z"/><path class="cls-3" d="M74.74,99.73c.84,2.51,1.68,5.07,2.51,7.65-25.6,5.21-46.46,18.64-46.46,40.33,0,28.45,35.61,42.7,71.5,42.85.84,2.91,1.66,5.91,2.36,8.83h17.66q-1.45-5-2.5-10c18.78-2.43,35.89-9,45.9-19.68a274.1,274.1,0,0,1,4.46,29.7H188c-3.06-33.52-13.91-67.26-25.32-99.66Z"/><path class="cls-2" d="M84.2,118.86c-35.88,6.18-50.91,29.41-35.61,49.5,6.54,8.84,22,14.26,37.29,14.55a55.3,55.3,0,0,0,32.12-9.6c15.31-4.39,26-13.7,26.29-25.87C145,127.69,115.08,113.57,84.2,118.86Z"/><path class="cls-2" d="M250,161.83c-20.72-20.58-44.22-40.82-63.28-62.1H126.07c26.3,33.8,65.93,64.46,94.58,97a20.34,20.34,0,0,0,2.93,2.65H250Z"/><path class="cls-2" d="M75,897.27c5-5.07,10-10.15,15.29-15.15a136.84,136.84,0,0,0,14.89-1.61c7.93-1.38,7.93-7.17,2.22-9.73,30.18-15.17,49.38-38.26,57.58-62.8,3.21-3.42,6.27-6.89,9.33-10.37H149.57c-.55,2.08-.82,4.11-1.52,6.2-14.06,15-28.93,29.75-44.1,44.44a21.31,21.31,0,0,0-.41-8.9c8.06-12,16-24.07,23.79-36,.27-.62.82-1.32,1.11-1.88,1.95-1.31,3.61-2.56,5.55-3.89H103.4c-2.78,2.65-5.57,5.36-8.21,8,2.23-2.63,4-5.28,6.26-8H67.79c-2.65,2.78-5.28,5.57-7.79,8.35a74.86,74.86,0,0,0-19.47-3c1.4-1.81,2.65-3.62,3.89-5.36H6.59c-2.08,2.78-3.89,5.63-5.84,8.49v91.17H31.91c2.5-2.58,5.29-5.14,7.65-7.72,2.64-.27,5.14-.7,7.65-1.18-2.24,3-4.87,6-7.24,8.9ZM30.1,844.63a45.46,45.46,0,0,1-3.2-7c-1-3.34-2.78-9.88-1.81-15.44,2.37-2.85,4.59-5.63,6.82-8.48.42-.14.69-.43,1.11-.48,5.84-1.54,12.79-.56,19.47,1.66-7.09,8.69-13.36,17.18-18.91,25C32.47,841.43,31.22,843,30.1,844.63Z"/><path class="cls-3" d="M74.74,897.27c.84-2.51,1.68-5.07,2.51-7.65-25.6-5.21-46.46-18.64-46.46-40.33,0-28.45,35.61-42.7,71.5-42.85.84-2.91,1.66-5.91,2.36-8.83h17.66q-1.45,5-2.5,10c18.78,2.43,35.89,9,45.9,19.68a274.1,274.1,0,0,0,4.46-29.7H188c-3.06,33.52-13.91,67.26-25.32,99.66Z"/><path class="cls-2" d="M144.29,849.56c-.27-12.17-11-21.48-26.29-25.87a55.82,55.82,0,0,0-32.12-9.6c-15.31.29-30.75,5.71-37.29,14.55-15.3,20.09-.27,43.32,35.61,49.5C115.08,883.43,145,869.31,144.29,849.56Z"/><path class="cls-2" d="M250,835.17c-20.72,20.58-44.22,40.82-63.28,62.1H126.07c26.3-33.8,65.93-64.46,94.58-97a20.34,20.34,0,0,1,2.93-2.65H250Z"/><path class="cls-2" d="M425,897.27c-5,5.07-10,10.23-15.29,15.23a119.49,119.49,0,0,0-14.89,1.61c-7.93,1.38-7.93,7.16-2.22,9.65C362.39,939,343.19,962.09,335,986.57c-3.21,3.48-6.27,6.95-9.32,10.43h24.76c.55-2.08.82-4.17,1.52-6.2,14.06-15,28.93-29.75,44.1-44.43a21.31,21.31,0,0,0,.41,8.9c-8.06,12-16,24.07-23.79,36-.27.63-.82,1.26-1.11,1.88-1.95,1.31-3.61,2.57-5.55,3.89H396.6c2.78-2.71,5.57-5.36,8.21-8.06-2.23,2.7-4,5.35-6.26,8.06h33.66c2.65-2.78,5.28-5.57,7.79-8.42a72.24,72.24,0,0,0,19.47,3.06c-1.4,1.81-2.65,3.62-3.89,5.36h37.83c2.08-2.78,3.89-5.64,5.84-8.49V897.27H468.1c-2.51,2.65-5.3,5.21-7.66,7.79-2.64.27-5.14.7-7.65,1.18,2.24-3,4.87-6,7.24-9ZM469.9,950a43.27,43.27,0,0,1,3.2,6.95c1,3.35,2.78,9.89,1.81,15.44-2.37,2.87-4.59,5.64-6.81,8.49-.43.15-.7.36-1.12.49-5.84,1.54-12.79.5-19.47-1.67,7.09-8.69,13.36-17.18,18.91-25C467.53,953.19,468.78,951.52,469.9,950Z"/><path class="cls-3" d="M425.26,897.27,422.75,905c25.6,5.21,46.46,18.65,46.46,40.34,0,28.44-35.61,42.7-71.5,42.84-.82,2.92-1.66,5.84-2.36,8.83H377.69c1-3.33,1.81-6.68,2.5-10-18.78-2.44-35.89-9-45.9-19.69a274.1,274.1,0,0,0-4.46,29.7H312c3.06-33.53,13.91-67.25,25.32-99.73Z"/><path class="cls-2" d="M355.71,945.06c.27,12.09,11,21.47,26.29,25.86a55.74,55.74,0,0,0,32.12,9.6c15.31-.28,30.75-5.78,37.29-14.54,15.3-20.1.27-43.33-35.61-49.51C384.92,911.19,355,925.3,355.71,945.06Z"/><path class="cls-2" d="M250,959.37c20.72-20.51,44.22-40.75,63.28-62.1h60.65c-26.3,33.8-65.93,64.54-94.58,97a21.4,21.4,0,0,1-2.93,2.71H250Z"/><path class="cls-2" d="M460,99.73c-2.37-3-5-6-7.24-9,2.51.48,5,.91,7.65,1.18,2.36,2.58,5.15,5.21,7.66,7.79h31.15V8.49c-1.95-2.85-3.76-5.64-5.84-8.49H455.58c1.24,1.74,2.49,3.62,3.89,5.36A72.24,72.24,0,0,0,440,8.42c-2.51-2.85-5.14-5.64-7.79-8.42H398.55c2.22,2.71,4,5.36,6.26,8.06-2.64-2.7-5.43-5.35-8.21-8.06H366c1.94,1.32,3.6,2.58,5.55,3.89.29.62.84,1.25,1.11,1.88,7.79,11.89,15.73,23.93,23.79,36a21.31,21.31,0,0,0-.41,8.9C380.88,36,366,21.21,352,6.25c-.7-2.08-1-4.17-1.52-6.25H325.67c3.05,3.48,6.11,7,9.32,10.43,8.2,24.48,27.4,47.57,57.58,62.81-5.71,2.49-5.71,8.27,2.22,9.65a107.56,107.56,0,0,0,14.89,1.61C415,89.5,420,94.66,425,99.73Zm6.39-57.44c-5.55-7.79-11.82-16.28-18.91-25,6.68-2.17,13.63-3.21,19.47-1.67.42.13.69.34,1.12.49,2.22,2.85,4.44,5.69,6.81,8.49,1,5.55-.84,12.09-1.81,15.42a42.69,42.69,0,0,1-3.2,7C468.78,45.48,467.53,43.81,466.42,42.29Z"/><path class="cls-3" d="M425.26,99.73,422.75,92c25.6-5.21,46.46-18.65,46.46-40.34,0-28.44-35.61-42.7-71.5-42.84C396.89,5.91,396.05,3,395.35,0H377.69c1,3.33,1.81,6.75,2.5,10-18.78,2.44-35.89,9-45.9,19.76A275.35,275.35,0,0,1,329.83,0H312c3.06,33.53,13.91,67.25,25.32,99.73Z"/><path class="cls-2" d="M415.8,80.53c35.88-6.18,50.91-29.41,35.61-49.51-6.54-8.77-22-14.26-37.29-14.54A55.74,55.74,0,0,0,382,26.08c-15.31,4.39-26,13.77-26.29,25.86C355,71.7,384.92,85.88,415.8,80.53Z"/><path class="cls-2" d="M250,37.63c20.72,20.58,44.22,40.82,63.28,62.1h60.65c-26.3-33.8-65.93-64.46-94.58-97A21.4,21.4,0,0,0,276.42,0H250Z"/><path class="cls-2" d="M425,697.89c-5,5.07-10,10.15-15.29,15.22a109.12,109.12,0,0,0-14.89,1.61c-7.93,1.38-7.93,7.09-2.22,9.66-30.18,15.24-49.38,38.25-57.58,62.81-3.21,3.47-6.27,6.95-9.32,10.42h24.76c.55-2.09.82-4.17,1.52-6.25,14.06-15,28.93-29.77,44.1-44.38a20.93,20.93,0,0,0,.41,8.83q-12.09,18.16-23.79,36c-.27.55-.82,1.25-1.11,1.88-1.95,1.31-3.61,2.56-5.55,3.88H396.6c2.78-2.7,5.57-5.35,8.21-8.06-2.23,2.71-4,5.36-6.26,8.06h33.66c2.65-2.77,5.28-5.56,7.79-8.41a72.24,72.24,0,0,0,19.47,3.06c-1.4,1.74-2.65,3.55-3.89,5.35h37.83c2.08-2.84,3.89-5.69,5.84-8.48V697.89H468.1c-2.51,2.57-5.3,5.21-7.66,7.79-2.64.27-5.14.69-7.65,1.18,2.24-3.06,4.87-6,7.24-9ZM469.9,750.6a42.87,42.87,0,0,1,3.2,6.95c1,3.35,2.78,9.88,1.81,15.44-2.37,2.79-4.59,5.64-6.81,8.49-.43.14-.7.35-1.12.48-5.84,1.54-12.79.5-19.47-1.74,7.09-8.61,13.36-17.1,18.91-24.89C467.53,753.8,468.78,752.14,469.9,750.6Z"/><path class="cls-3" d="M425.26,697.89c-.84,2.57-1.67,5.14-2.51,7.72,25.6,5.21,46.46,18.64,46.46,40.33,0,28.37-35.61,42.7-71.5,42.84-.82,2.85-1.66,5.84-2.36,8.83H377.69c1-3.4,1.81-6.75,2.5-10-18.78-2.43-35.89-9-45.9-19.75a275.17,275.17,0,0,0-4.46,29.76H312c3.06-33.58,13.91-67.25,25.32-99.72Z"/><path class="cls-2" d="M355.71,745.67c.27,12.09,11,21.41,26.29,25.79a55.33,55.33,0,0,0,32.12,9.68c15.31-.29,30.75-5.79,37.29-14.55,15.3-20.09.27-43.32-35.61-49.5C384.92,711.73,355,725.92,355.71,745.67Z"/><path class="cls-2" d="M250,760c20.72-20.58,44.22-40.82,63.28-62.09h60.65c-26.3,33.79-65.93,64.46-94.58,97a21.32,21.32,0,0,1-2.93,2.7H250Z"/><path class="cls-2" d="M460,299.11c-2.37-3-5-5.91-7.24-9,2.51.49,5,.91,7.65,1.18,2.36,2.58,5.15,5.22,7.66,7.79h31.15V207.87c-1.95-2.79-3.76-5.64-5.84-8.48H455.58c1.24,1.8,2.49,3.61,3.89,5.35A72.24,72.24,0,0,0,440,207.8c-2.51-2.85-5.14-5.64-7.79-8.41H398.55c2.22,2.7,4,5.35,6.26,8.06-2.64-2.71-5.43-5.36-8.21-8.06H366c1.94,1.32,3.6,2.57,5.55,3.88.29.63.84,1.33,1.11,1.88q11.68,17.85,23.79,36a20.93,20.93,0,0,0-.41,8.83c-15.17-14.61-30-29.36-44.1-44.38-.7-2.08-1-4.16-1.52-6.25H325.67c3.05,3.47,6.11,7,9.32,10.42,8.2,24.56,27.4,47.57,57.58,62.81-5.71,2.57-5.71,8.28,2.22,9.66a109.12,109.12,0,0,0,14.89,1.61C415,289,420,294,425,299.11Zm6.39-57.44c-5.55-7.79-11.82-16.28-18.91-24.89,6.68-2.24,13.63-3.28,19.47-1.74.42.13.69.34,1.12.48,2.22,2.85,4.44,5.7,6.81,8.49,1,5.56-.84,12.09-1.81,15.44a42.87,42.87,0,0,1-3.2,7C468.78,244.86,467.53,243.2,466.42,241.67Z"/><path class="cls-3" d="M425.26,299.11c-.84-2.57-1.67-5.14-2.51-7.72,25.6-5.21,46.46-18.64,46.46-40.33,0-28.37-35.61-42.7-71.5-42.84-.82-2.85-1.66-5.84-2.36-8.83H377.69c1,3.4,1.81,6.75,2.5,10-18.78,2.43-35.89,9-45.9,19.75a275.17,275.17,0,0,1-4.46-29.76H312c3.06,33.58,13.91,67.25,25.32,99.72Z"/><path class="cls-2" d="M415.8,279.91c35.88-6.18,50.91-29.41,35.61-49.5-6.54-8.76-22-14.26-37.29-14.55A55.33,55.33,0,0,0,382,225.54c-15.31,4.38-26,13.7-26.29,25.79C355,271.08,384.92,285.27,415.8,279.91Z"/><path class="cls-2" d="M250,237c20.72,20.58,44.22,40.82,63.28,62.09h60.65c-26.3-33.79-65.93-64.46-94.58-97a21.32,21.32,0,0,0-2.93-2.7H250Z"/><path class="cls-2" d="M425,498.5c-5,5.07-10,10.16-15.29,15.15a119.7,119.7,0,0,0-14.89,1.69c-7.93,1.38-7.93,7.09-2.22,9.65-30.18,15.24-49.38,38.26-57.58,62.81-3.21,3.48-6.27,7-9.32,10.43h24.76c.55-2.1.82-4.17,1.52-6.27,14.06-15,28.93-29.75,44.1-44.44a21.25,21.25,0,0,0,.41,8.91c-8.06,12-16,24.14-23.79,36-.27.56-.82,1.25-1.11,1.88-1.95,1.31-3.61,2.56-5.55,3.89H396.6c2.78-2.71,5.57-5.36,8.21-8.06-2.23,2.7-4,5.35-6.26,8.06h33.66c2.65-2.78,5.28-5.57,7.79-8.42a78.21,78.21,0,0,0,19.47,3.06c-1.4,1.74-2.65,3.55-3.89,5.36h37.83c2.08-2.85,3.89-5.7,5.84-8.49V498.5H468.1c-2.51,2.58-5.3,5.21-7.66,7.72-2.64.34-5.14.77-7.65,1.25,2.24-3.06,4.87-6,7.24-9Zm44.93,52.71a42.87,42.87,0,0,1,3.2,6.95c1,3.35,2.78,9.89,1.81,15.44-2.37,2.79-4.59,5.64-6.81,8.42a7.8,7.8,0,0,1-1.12.56c-5.84,1.46-12.79.48-19.47-1.74,7.09-8.62,13.36-17.11,18.91-24.9C467.53,554.42,468.78,552.75,469.9,551.21Z"/><path class="cls-3" d="M425.26,498.5c-.84,2.58-1.67,5.14-2.51,7.65,25.6,5.28,46.46,18.64,46.46,40.33,0,28.45-35.61,42.7-71.5,42.85-.82,2.92-1.66,5.91-2.36,8.9H377.69c1-3.41,1.81-6.75,2.5-10.09-18.78-2.36-35.89-9-45.9-19.68a275.35,275.35,0,0,0-4.46,29.77H312c3.06-33.59,13.91-67.33,25.32-99.73Z"/><path class="cls-2" d="M355.71,546.21c.27,12.17,11,21.48,26.29,25.87a55.26,55.26,0,0,0,32.12,9.67c15.31-.29,30.75-5.78,37.29-14.54,15.3-20.17.27-43.33-35.61-49.51C384.92,512.34,355,526.46,355.71,546.21Z"/><path class="cls-2" d="M250,560.6c20.72-20.58,44.22-40.82,63.28-62.1h60.65c-26.3,33.8-65.93,64.46-94.58,97a21.4,21.4,0,0,1-2.93,2.71H250Z"/><path class="cls-2" d="M460,498.5c-2.37-3-5-5.91-7.24-9,2.51.48,5,.91,7.65,1.25,2.36,2.51,5.15,5.14,7.66,7.72h31.15V407.26c-1.95-2.79-3.76-5.64-5.84-8.49H455.58c1.24,1.81,2.49,3.62,3.89,5.36A78.21,78.21,0,0,0,440,407.19c-2.51-2.85-5.14-5.64-7.79-8.42H398.55c2.22,2.71,4,5.36,6.26,8.06-2.64-2.7-5.43-5.35-8.21-8.06H366c1.94,1.33,3.6,2.58,5.55,3.89.29.63.84,1.32,1.11,1.88,7.79,11.89,15.73,24,23.79,36a21.25,21.25,0,0,0-.41,8.91C380.88,434.79,366,420.05,352,405c-.7-2.08-1-4.15-1.52-6.25H325.67c3.05,3.48,6.11,7,9.32,10.43,8.2,24.55,27.4,47.57,57.58,62.81-5.71,2.56-5.71,8.27,2.22,9.65a119.7,119.7,0,0,0,14.89,1.69c5.28,5,10.29,10.08,15.29,15.15Zm6.39-57.44c-5.55-7.79-11.82-16.28-18.91-24.9,6.68-2.23,13.63-3.2,19.47-1.74a7.8,7.8,0,0,1,1.12.56c2.22,2.78,4.44,5.63,6.81,8.42,1,5.55-.84,12.09-1.81,15.44a42.87,42.87,0,0,1-3.2,7C468.78,444.25,467.53,442.58,466.42,441.06Z"/><path class="cls-3" d="M425.26,498.5c-.84-2.58-1.67-5.07-2.51-7.65,25.6-5.21,46.46-18.64,46.46-40.33,0-28.45-35.61-42.7-71.5-42.85-.82-2.92-1.66-5.91-2.36-8.9H377.69c1,3.41,1.81,6.75,2.5,10.09-18.78,2.36-35.89,9-45.9,19.68a275.35,275.35,0,0,1-4.46-29.77H312c3.06,33.59,13.91,67.33,25.32,99.73Z"/><path class="cls-2" d="M415.8,479.3c35.88-6.18,50.91-29.34,35.61-49.51-6.54-8.76-22-14.25-37.29-14.54A55.26,55.26,0,0,0,382,424.92c-15.31,4.39-26,13.7-26.29,25.87C355,470.54,384.92,484.66,415.8,479.3Z"/><path class="cls-2" d="M250,436.4c20.72,20.58,44.22,40.82,63.28,62.1h60.65c-26.3-33.8-65.93-64.46-94.58-97a21.4,21.4,0,0,0-2.93-2.71H250Z"/><path class="cls-2" d="M425,299.11c-5,5.07-10,10.16-15.29,15.16A119.67,119.67,0,0,0,394.79,316c-7.93,1.38-7.93,7.09-2.22,9.66-30.18,15.24-49.38,38.25-57.58,62.81-3.21,3.4-6.27,6.88-9.32,10.35h24.76c.55-2,.82-4.1,1.52-6.19,14.06-15,28.93-29.76,44.1-44.44a21.2,21.2,0,0,0,.41,8.9c-8.06,12-16,24.14-23.79,36-.27.63-.82,1.33-1.11,1.94-1.95,1.25-3.61,2.58-5.55,3.83H396.6c2.78-2.65,5.57-5.28,8.21-8-2.23,2.71-4,5.34-6.26,8h33.66c2.65-2.78,5.28-5.57,7.79-8.34a78.68,78.68,0,0,0,19.47,3.06c-1.4,1.74-2.65,3.54-3.89,5.28h37.83c2.08-2.78,3.89-5.62,5.84-8.49V299.11H468.1c-2.51,2.58-5.3,5.15-7.66,7.72-2.64.27-5.14.7-7.65,1.19,2.24-3,4.87-5.91,7.24-8.91Zm44.93,52.65a48.76,48.76,0,0,1,3.2,7c1,3.4,2.78,9.94,1.81,15.44-2.37,2.85-4.59,5.7-6.81,8.47a6.36,6.36,0,0,1-1.12.49c-5.84,1.54-12.79.55-19.47-1.67,7.09-8.61,13.36-17.1,18.91-25C467.53,355,468.78,353.37,469.9,351.76Z"/><path class="cls-3" d="M425.26,299.11c-.84,2.58-1.67,5.07-2.51,7.65,25.6,5.22,46.46,18.65,46.46,40.34,0,28.44-35.61,42.7-71.5,42.84-.82,2.92-1.66,5.91-2.36,8.83H377.69c1-3.33,1.81-6.68,2.5-10-18.78-2.44-35.89-9-45.9-19.68a273.93,273.93,0,0,0-4.46,29.69H312c3.06-33.51,13.91-67.25,25.32-99.66Z"/><path class="cls-2" d="M355.71,346.83c.27,12.16,11,21.48,26.29,25.86a54.73,54.73,0,0,0,32.12,9.6c15.31-.28,30.75-5.71,37.29-14.54,15.3-20.1.27-43.25-35.61-49.51C384.92,313,355,327.07,355.71,346.83Z"/><path class="cls-2" d="M250,361.21c20.72-20.58,44.22-40.82,63.28-62.1h60.65c-26.3,33.8-65.93,64.47-94.58,97a19.77,19.77,0,0,1-2.93,2.65H250Z"/><path class="cls-2" d="M460,697.89c-2.37-3-5-5.92-7.24-8.91,2.51.49,5,.9,7.65,1.19,2.36,2.57,5.15,5.14,7.66,7.72h31.15V606.72c-1.95-2.87-3.76-5.71-5.84-8.49H455.58c1.24,1.74,2.49,3.54,3.89,5.28A78.68,78.68,0,0,0,440,606.57c-2.51-2.77-5.14-5.56-7.79-8.34H398.55c2.22,2.63,4,5.28,6.26,8-2.64-2.71-5.43-5.36-8.21-8H366c1.94,1.25,3.6,2.58,5.55,3.83.29.61.84,1.31,1.11,1.94,7.79,11.82,15.73,23.92,23.79,36a21.2,21.2,0,0,0-.41,8.9c-15.17-14.68-30-29.42-44.1-44.44-.7-2.09-1-4.17-1.52-6.19H325.67c3.05,3.47,6.11,6.95,9.32,10.35,8.2,24.56,27.4,47.57,57.58,62.81-5.71,2.57-5.71,8.28,2.22,9.66a119.67,119.67,0,0,0,14.89,1.68c5.28,5,10.29,10.09,15.29,15.16Zm6.39-57.37c-5.55-7.87-11.82-16.36-18.91-25,6.68-2.22,13.63-3.21,19.47-1.67a6.36,6.36,0,0,1,1.12.49c2.22,2.77,4.44,5.62,6.81,8.47,1,5.5-.84,12-1.81,15.44a48.76,48.76,0,0,1-3.2,7C468.78,643.63,467.53,642,466.42,640.52Z"/><path class="cls-3" d="M425.26,697.89c-.84-2.58-1.67-5.07-2.51-7.65,25.6-5.22,46.46-18.65,46.46-40.34,0-28.44-35.61-42.7-71.5-42.84-.82-2.92-1.66-5.91-2.36-8.83H377.69c1,3.33,1.81,6.68,2.5,10-18.78,2.44-35.89,9-45.9,19.68a273.93,273.93,0,0,1-4.46-29.69H312c3.06,33.51,13.91,67.25,25.32,99.66Z"/><path class="cls-2" d="M415.8,678.76c35.88-6.26,50.91-29.41,35.61-49.51-6.54-8.83-22-14.26-37.29-14.54a54.73,54.73,0,0,0-32.12,9.6c-15.31,4.38-26,13.7-26.29,25.86C355,669.93,384.92,684,415.8,678.76Z"/><path class="cls-2" d="M250,635.79c20.72,20.58,44.22,40.82,63.28,62.1h60.65c-26.3-33.8-65.93-64.47-94.58-97a20.8,20.8,0,0,0-2.93-2.63H250Z"/><path class="cls-2" d="M425,99.73c-5,5.07-10,10.15-15.29,15.15a136.84,136.84,0,0,0-14.89,1.61c-7.93,1.38-7.93,7.17-2.22,9.73C362.39,141.39,343.19,164.48,335,189c-3.21,3.42-6.27,6.89-9.32,10.37h24.76c.55-2.08.82-4.18,1.52-6.2,14.06-15,28.93-29.75,44.1-44.44a21.31,21.31,0,0,0,.41,8.9c-8.06,12-16,24.07-23.79,36-.27.62-.82,1.25-1.11,1.88-1.95,1.31-3.61,2.63-5.55,3.89H396.6c2.78-2.65,5.57-5.36,8.21-8.07-2.23,2.71-4,5.36-6.26,8.07h33.66c2.65-2.78,5.28-5.57,7.79-8.35a74.86,74.86,0,0,0,19.47,3c-1.4,1.81-2.65,3.62-3.89,5.36h37.83c2.08-2.78,3.89-5.63,5.84-8.49V99.73H468.1c-2.51,2.58-5.3,5.14-7.66,7.72-2.64.27-5.14.7-7.65,1.18,2.24-3,4.87-6,7.24-8.9Zm44.93,52.64a45.46,45.46,0,0,1,3.2,7c1,3.34,2.78,9.88,1.81,15.44-2.37,2.85-4.59,5.63-6.81,8.48-.43.14-.7.43-1.12.48-5.84,1.54-12.79.56-19.47-1.66,7.09-8.62,13.36-17.18,18.91-25C467.53,155.57,468.78,154,469.9,152.37Z"/><path class="cls-3" d="M425.26,99.73c-.84,2.51-1.67,5.07-2.51,7.65,25.6,5.21,46.46,18.64,46.46,40.33,0,28.45-35.61,42.7-71.5,42.85-.82,2.91-1.66,5.91-2.36,8.83H377.69q1.46-5,2.5-10c-18.78-2.43-35.89-9-45.9-19.68a274.1,274.1,0,0,0-4.46,29.7H312c3.06-33.52,13.91-67.26,25.32-99.66Z"/><path class="cls-2" d="M355.71,147.44c.27,12.17,11,21.48,26.29,25.87a55.3,55.3,0,0,0,32.12,9.6c15.31-.29,30.75-5.71,37.29-14.55,15.3-20.09.27-43.32-35.61-49.5C384.92,113.57,355,127.69,355.71,147.44Z"/><path class="cls-2" d="M250,161.83c20.72-20.58,44.22-40.82,63.28-62.1h60.65c-26.3,33.8-65.93,64.46-94.58,97a20.34,20.34,0,0,1-2.93,2.65H250Z"/><path class="cls-2" d="M460,897.27c-2.37-2.92-5-5.91-7.24-8.9,2.51.48,5,.91,7.65,1.18,2.36,2.58,5.15,5.14,7.66,7.72h31.15V806.1c-1.95-2.86-3.76-5.71-5.84-8.49H455.58c1.24,1.74,2.49,3.55,3.89,5.36A74.86,74.86,0,0,0,440,806c-2.51-2.78-5.14-5.57-7.79-8.35H398.55c2.22,2.71,4,5.36,6.26,8-2.64-2.63-5.43-5.34-8.21-8H366c1.94,1.33,3.6,2.58,5.55,3.89.29.56.84,1.26,1.11,1.88,7.79,11.9,15.73,23.93,23.79,36a21.31,21.31,0,0,0-.41,8.9c-15.17-14.69-30-29.43-44.1-44.44-.7-2.09-1-4.12-1.52-6.2H325.67c3.05,3.48,6.11,6.95,9.32,10.37,8.2,24.54,27.4,47.63,57.58,62.8-5.71,2.56-5.71,8.35,2.22,9.73a136.84,136.84,0,0,0,14.89,1.61c5.28,5,10.29,10.08,15.29,15.15Zm6.39-57.37c-5.55-7.79-11.82-16.28-18.91-25,6.68-2.22,13.63-3.2,19.47-1.66.42.05.69.34,1.12.48,2.22,2.85,4.44,5.63,6.81,8.48,1,5.56-.84,12.1-1.81,15.44a45.46,45.46,0,0,1-3.2,7C468.78,843,467.53,841.43,466.42,839.9Z"/><path class="cls-3" d="M425.26,897.27c-.84-2.51-1.67-5.07-2.51-7.65,25.6-5.21,46.46-18.64,46.46-40.33,0-28.45-35.61-42.7-71.5-42.85-.82-2.91-1.66-5.91-2.36-8.83H377.69q1.46,5,2.5,10c-18.78,2.43-35.89,9-45.9,19.68a274.1,274.1,0,0,1-4.46-29.7H312c3.06,33.52,13.91,67.26,25.32,99.66Z"/><path class="cls-2" d="M415.8,878.14c35.88-6.18,50.91-29.41,35.61-49.5-6.54-8.84-22-14.26-37.29-14.55a55.82,55.82,0,0,0-32.12,9.6c-15.31,4.39-26,13.7-26.29,25.87C355,869.31,384.92,883.43,415.8,878.14Z"/><path class="cls-2" d="M250,835.17c20.72,20.58,44.22,40.82,63.28,62.1h60.65c-26.3-33.8-65.93-64.46-94.58-97a20.34,20.34,0,0,0-2.93-2.65H250Z"/></svg>