<svg id="Layer_1" data-name="Layer 1" xmlns="http://www.w3.org/2000/svg" viewBox="0 0 1080 1080"><defs><style>.cls-1,.cls-2,.cls-3{fill:none;}.cls-1,.cls-2{stroke:#fff;stroke-width:50px;}.cls-1{stroke-linecap:round;stroke-linejoin:round;}.cls-2{stroke-miterlimit:22.93;}</style></defs><title>volunteer</title><path class="cls-1" d="M914.54,612.52l63.93-63.6c110.18-109.63,55.71-257.73-33.06-352.81-29.26-31.35-62.68-58.51-97.29-77.83C803,93.08,661.68,56.21,569.24,145.86L377.39,336.06c-51.78,51.35,78.9,101,145,36.08l48.34-47.45c71.39-64.51,161.11,64.76,272.94-23.16M167.75,582.43l-63.83-63.5C-108.79,307.31,259.62-56,475.52,153.36l43,42.64M672.87,370.76l247,258c50.43,52.67-24.45,153-89.17,86.46l-115.8-119M614,676.44,741.32,806.73c51,52.16,154.13-25,89.42-91.49L706.33,587.34m-131,233.07,63.58,63.87C690.4,936,790.29,862.2,726.11,795.05"/><path class="cls-2" d="M319.29,530.07l6.79,6.77a59,59,0,0,1,0,83.27l-88,87.69c-22.89,22.8-60.64,22.85-83.57,0L147.74,701a58.93,58.93,0,0,1,0-83.26l88-87.7a59.47,59.47,0,0,1,83.58,0Zm148,40.13,6.79,6.76a59,59,0,0,1,0,83.27L333.93,799.86c-22.91,22.82-60.66,22.82-83.57,0l-6.79-6.77a59,59,0,0,1,0-83.26L383.71,570.2a59.43,59.43,0,0,1,83.58,0Zm57.27,130.47,6.79,6.76a58.93,58.93,0,0,1,0,83.27l-96.08,95.73a59.51,59.51,0,0,1-83.58,0l-6.79-6.76a58.94,58.94,0,0,1,0-83.27L441,700.67a59.42,59.42,0,0,1,83.57,0Zm61.78,124.48,6.79,6.76a59,59,0,0,1,0,83.27l-59,58.77c-22.89,22.81-60.66,22.83-83.57,0l-6.79-6.76a59,59,0,0,1,0-83.27l59-58.78a59.46,59.46,0,0,1,83.58,0Z"/><rect class="cls-3" width="1080" height="1080"/></svg>